<mxfile host="app.diagrams.net" agent="Mozilla/5.0 (Windows NT 10.0; Win64; x64) AppleWebKit/537.36 (KHTML, like Gecko) Chrome/131.0.0.0 Safari/537.36" version="25.0.3">
  <diagram name="Page-1" id="skQ6Bqla_CH4Cx-famLH">
    <mxGraphModel dx="1687" dy="878" grid="1" gridSize="10" guides="1" tooltips="1" connect="1" arrows="1" fold="1" page="1" pageScale="1" pageWidth="850" pageHeight="1100" math="0" shadow="0">
      <root>
        <mxCell id="0" />
        <mxCell id="1" parent="0" />
        <mxCell id="QPa2e-_EbMcNQabbTF7_-1" value="Line_buffer_0" style="rounded=0;whiteSpace=wrap;html=1;" parent="1" vertex="1">
          <mxGeometry x="230" y="360" width="120" height="40" as="geometry" />
        </mxCell>
        <mxCell id="QPa2e-_EbMcNQabbTF7_-2" value="Line_buffer_1" style="rounded=0;whiteSpace=wrap;html=1;" parent="1" vertex="1">
          <mxGeometry x="230" y="440" width="120" height="40" as="geometry" />
        </mxCell>
        <mxCell id="QPa2e-_EbMcNQabbTF7_-53" value="Line_buffer_2" style="rounded=0;whiteSpace=wrap;html=1;" parent="1" vertex="1">
          <mxGeometry x="230" y="520" width="120" height="40" as="geometry" />
        </mxCell>
        <mxCell id="QPa2e-_EbMcNQabbTF7_-60" value="Line_buffer_3" style="rounded=0;whiteSpace=wrap;html=1;" parent="1" vertex="1">
          <mxGeometry x="230" y="600" width="120" height="40" as="geometry" />
        </mxCell>
        <mxCell id="QPa2e-_EbMcNQabbTF7_-74" value="Line_buffer_4" style="rounded=0;whiteSpace=wrap;html=1;" parent="1" vertex="1">
          <mxGeometry x="230" y="680" width="120" height="40" as="geometry" />
        </mxCell>
        <mxCell id="QPa2e-_EbMcNQabbTF7_-81" value="Line_buffer_5" style="rounded=0;whiteSpace=wrap;html=1;" parent="1" vertex="1">
          <mxGeometry x="230" y="760" width="120" height="40" as="geometry" />
        </mxCell>
        <mxCell id="QPa2e-_EbMcNQabbTF7_-88" value="Line_buffer_6" style="rounded=0;whiteSpace=wrap;html=1;" parent="1" vertex="1">
          <mxGeometry x="230" y="840" width="120" height="40" as="geometry" />
        </mxCell>
        <mxCell id="vtVKMghq7bhRAIps2ces-1" value="grayscale_i" style="rounded=0;whiteSpace=wrap;html=1;" parent="1" vertex="1">
          <mxGeometry x="230" y="270" width="120" height="40" as="geometry" />
        </mxCell>
        <mxCell id="vtVKMghq7bhRAIps2ces-2" value="d80" style="rounded=0;whiteSpace=wrap;html=1;" parent="1" vertex="1">
          <mxGeometry x="400" y="270" width="40" height="40" as="geometry" />
        </mxCell>
        <mxCell id="vtVKMghq7bhRAIps2ces-3" value="" style="endArrow=classic;html=1;rounded=0;exitX=1;exitY=0.5;exitDx=0;exitDy=0;" parent="1" source="vtVKMghq7bhRAIps2ces-2" edge="1">
          <mxGeometry width="50" height="50" relative="1" as="geometry">
            <mxPoint x="460" y="290" as="sourcePoint" />
            <mxPoint x="480" y="290" as="targetPoint" />
          </mxGeometry>
        </mxCell>
        <mxCell id="vtVKMghq7bhRAIps2ces-4" value="" style="endArrow=classic;html=1;rounded=0;exitX=1;exitY=0.5;exitDx=0;exitDy=0;entryX=0;entryY=0.5;entryDx=0;entryDy=0;" parent="1" source="vtVKMghq7bhRAIps2ces-1" target="vtVKMghq7bhRAIps2ces-2" edge="1">
          <mxGeometry width="50" height="50" relative="1" as="geometry">
            <mxPoint x="600" y="420" as="sourcePoint" />
            <mxPoint x="650" y="370" as="targetPoint" />
          </mxGeometry>
        </mxCell>
        <mxCell id="vtVKMghq7bhRAIps2ces-5" value="d79" style="rounded=0;whiteSpace=wrap;html=1;" parent="1" vertex="1">
          <mxGeometry x="480" y="270" width="40" height="40" as="geometry" />
        </mxCell>
        <mxCell id="vtVKMghq7bhRAIps2ces-6" value="" style="endArrow=classic;html=1;rounded=0;exitX=1;exitY=0.5;exitDx=0;exitDy=0;" parent="1" edge="1">
          <mxGeometry width="50" height="50" relative="1" as="geometry">
            <mxPoint x="520" y="290" as="sourcePoint" />
            <mxPoint x="560" y="290" as="targetPoint" />
          </mxGeometry>
        </mxCell>
        <mxCell id="vtVKMghq7bhRAIps2ces-7" value="d78" style="rounded=0;whiteSpace=wrap;html=1;" parent="1" vertex="1">
          <mxGeometry x="560" y="270" width="40" height="40" as="geometry" />
        </mxCell>
        <mxCell id="vtVKMghq7bhRAIps2ces-8" value="" style="endArrow=classic;html=1;rounded=0;exitX=1;exitY=0.5;exitDx=0;exitDy=0;" parent="1" edge="1">
          <mxGeometry width="50" height="50" relative="1" as="geometry">
            <mxPoint x="600" y="290" as="sourcePoint" />
            <mxPoint x="640" y="290" as="targetPoint" />
          </mxGeometry>
        </mxCell>
        <mxCell id="vtVKMghq7bhRAIps2ces-9" value="d77" style="rounded=0;whiteSpace=wrap;html=1;" parent="1" vertex="1">
          <mxGeometry x="640" y="270" width="40" height="40" as="geometry" />
        </mxCell>
        <mxCell id="vtVKMghq7bhRAIps2ces-10" value="" style="endArrow=classic;html=1;rounded=0;exitX=1;exitY=0.5;exitDx=0;exitDy=0;" parent="1" edge="1">
          <mxGeometry width="50" height="50" relative="1" as="geometry">
            <mxPoint x="680" y="290" as="sourcePoint" />
            <mxPoint x="720" y="290" as="targetPoint" />
          </mxGeometry>
        </mxCell>
        <mxCell id="vtVKMghq7bhRAIps2ces-11" value="d76" style="rounded=0;whiteSpace=wrap;html=1;" parent="1" vertex="1">
          <mxGeometry x="720" y="270" width="40" height="40" as="geometry" />
        </mxCell>
        <mxCell id="vtVKMghq7bhRAIps2ces-12" value="" style="endArrow=classic;html=1;rounded=0;exitX=1;exitY=0.5;exitDx=0;exitDy=0;" parent="1" edge="1">
          <mxGeometry width="50" height="50" relative="1" as="geometry">
            <mxPoint x="760" y="290" as="sourcePoint" />
            <mxPoint x="800" y="290" as="targetPoint" />
          </mxGeometry>
        </mxCell>
        <mxCell id="vtVKMghq7bhRAIps2ces-13" value="d75" style="rounded=0;whiteSpace=wrap;html=1;" parent="1" vertex="1">
          <mxGeometry x="800" y="270" width="40" height="40" as="geometry" />
        </mxCell>
        <mxCell id="vtVKMghq7bhRAIps2ces-14" value="" style="endArrow=classic;html=1;rounded=0;exitX=1;exitY=0.5;exitDx=0;exitDy=0;" parent="1" edge="1">
          <mxGeometry width="50" height="50" relative="1" as="geometry">
            <mxPoint x="840" y="290" as="sourcePoint" />
            <mxPoint x="880" y="290" as="targetPoint" />
          </mxGeometry>
        </mxCell>
        <mxCell id="vtVKMghq7bhRAIps2ces-15" value="d74" style="rounded=0;whiteSpace=wrap;html=1;" parent="1" vertex="1">
          <mxGeometry x="880" y="270" width="40" height="40" as="geometry" />
        </mxCell>
        <mxCell id="vtVKMghq7bhRAIps2ces-16" value="Line_buffer_7" style="rounded=0;whiteSpace=wrap;html=1;" parent="1" vertex="1">
          <mxGeometry x="230" y="920" width="120" height="40" as="geometry" />
        </mxCell>
        <mxCell id="vtVKMghq7bhRAIps2ces-44" value="d73" style="rounded=0;whiteSpace=wrap;html=1;" parent="1" vertex="1">
          <mxGeometry x="960" y="270" width="40" height="40" as="geometry" />
        </mxCell>
        <mxCell id="vtVKMghq7bhRAIps2ces-45" value="" style="endArrow=classic;html=1;rounded=0;exitX=1;exitY=0.5;exitDx=0;exitDy=0;" parent="1" edge="1">
          <mxGeometry width="50" height="50" relative="1" as="geometry">
            <mxPoint x="1000" y="290" as="sourcePoint" />
            <mxPoint x="1040" y="290" as="targetPoint" />
          </mxGeometry>
        </mxCell>
        <mxCell id="vtVKMghq7bhRAIps2ces-46" value="d72" style="rounded=0;whiteSpace=wrap;html=1;" parent="1" vertex="1">
          <mxGeometry x="1040" y="270" width="40" height="40" as="geometry" />
        </mxCell>
        <mxCell id="vtVKMghq7bhRAIps2ces-47" value="" style="endArrow=classic;html=1;rounded=0;exitX=1;exitY=0.5;exitDx=0;exitDy=0;" parent="1" edge="1">
          <mxGeometry width="50" height="50" relative="1" as="geometry">
            <mxPoint x="920" y="289.76" as="sourcePoint" />
            <mxPoint x="960" y="289.76" as="targetPoint" />
          </mxGeometry>
        </mxCell>
        <mxCell id="vtVKMghq7bhRAIps2ces-48" value="d71" style="rounded=0;whiteSpace=wrap;html=1;" parent="1" vertex="1">
          <mxGeometry x="400" y="360" width="40" height="40" as="geometry" />
        </mxCell>
        <mxCell id="vtVKMghq7bhRAIps2ces-49" value="" style="endArrow=classic;html=1;rounded=0;exitX=1;exitY=0.5;exitDx=0;exitDy=0;" parent="1" source="vtVKMghq7bhRAIps2ces-48" edge="1">
          <mxGeometry width="50" height="50" relative="1" as="geometry">
            <mxPoint x="460" y="380" as="sourcePoint" />
            <mxPoint x="480" y="380" as="targetPoint" />
          </mxGeometry>
        </mxCell>
        <mxCell id="vtVKMghq7bhRAIps2ces-50" value="" style="endArrow=classic;html=1;rounded=0;exitX=1;exitY=0.5;exitDx=0;exitDy=0;entryX=0;entryY=0.5;entryDx=0;entryDy=0;" parent="1" target="vtVKMghq7bhRAIps2ces-48" edge="1">
          <mxGeometry width="50" height="50" relative="1" as="geometry">
            <mxPoint x="350" y="380" as="sourcePoint" />
            <mxPoint x="650" y="460" as="targetPoint" />
          </mxGeometry>
        </mxCell>
        <mxCell id="vtVKMghq7bhRAIps2ces-51" value="d70" style="rounded=0;whiteSpace=wrap;html=1;" parent="1" vertex="1">
          <mxGeometry x="480" y="360" width="40" height="40" as="geometry" />
        </mxCell>
        <mxCell id="vtVKMghq7bhRAIps2ces-52" value="" style="endArrow=classic;html=1;rounded=0;exitX=1;exitY=0.5;exitDx=0;exitDy=0;" parent="1" edge="1">
          <mxGeometry width="50" height="50" relative="1" as="geometry">
            <mxPoint x="520" y="380" as="sourcePoint" />
            <mxPoint x="560" y="380" as="targetPoint" />
          </mxGeometry>
        </mxCell>
        <mxCell id="vtVKMghq7bhRAIps2ces-53" value="d69" style="rounded=0;whiteSpace=wrap;html=1;" parent="1" vertex="1">
          <mxGeometry x="560" y="360" width="40" height="40" as="geometry" />
        </mxCell>
        <mxCell id="vtVKMghq7bhRAIps2ces-54" value="" style="endArrow=classic;html=1;rounded=0;exitX=1;exitY=0.5;exitDx=0;exitDy=0;" parent="1" edge="1">
          <mxGeometry width="50" height="50" relative="1" as="geometry">
            <mxPoint x="600" y="380" as="sourcePoint" />
            <mxPoint x="640" y="380" as="targetPoint" />
          </mxGeometry>
        </mxCell>
        <mxCell id="vtVKMghq7bhRAIps2ces-55" value="d68" style="rounded=0;whiteSpace=wrap;html=1;" parent="1" vertex="1">
          <mxGeometry x="640" y="360" width="40" height="40" as="geometry" />
        </mxCell>
        <mxCell id="vtVKMghq7bhRAIps2ces-56" value="" style="endArrow=classic;html=1;rounded=0;exitX=1;exitY=0.5;exitDx=0;exitDy=0;" parent="1" edge="1">
          <mxGeometry width="50" height="50" relative="1" as="geometry">
            <mxPoint x="680" y="380" as="sourcePoint" />
            <mxPoint x="720" y="380" as="targetPoint" />
          </mxGeometry>
        </mxCell>
        <mxCell id="vtVKMghq7bhRAIps2ces-57" value="d67" style="rounded=0;whiteSpace=wrap;html=1;" parent="1" vertex="1">
          <mxGeometry x="720" y="360" width="40" height="40" as="geometry" />
        </mxCell>
        <mxCell id="vtVKMghq7bhRAIps2ces-58" value="" style="endArrow=classic;html=1;rounded=0;exitX=1;exitY=0.5;exitDx=0;exitDy=0;" parent="1" edge="1">
          <mxGeometry width="50" height="50" relative="1" as="geometry">
            <mxPoint x="760" y="380" as="sourcePoint" />
            <mxPoint x="800" y="380" as="targetPoint" />
          </mxGeometry>
        </mxCell>
        <mxCell id="vtVKMghq7bhRAIps2ces-59" value="d66" style="rounded=0;whiteSpace=wrap;html=1;" parent="1" vertex="1">
          <mxGeometry x="800" y="360" width="40" height="40" as="geometry" />
        </mxCell>
        <mxCell id="vtVKMghq7bhRAIps2ces-60" value="" style="endArrow=classic;html=1;rounded=0;exitX=1;exitY=0.5;exitDx=0;exitDy=0;" parent="1" edge="1">
          <mxGeometry width="50" height="50" relative="1" as="geometry">
            <mxPoint x="840" y="380" as="sourcePoint" />
            <mxPoint x="880" y="380" as="targetPoint" />
          </mxGeometry>
        </mxCell>
        <mxCell id="vtVKMghq7bhRAIps2ces-61" value="d65" style="rounded=0;whiteSpace=wrap;html=1;" parent="1" vertex="1">
          <mxGeometry x="880" y="360" width="40" height="40" as="geometry" />
        </mxCell>
        <mxCell id="vtVKMghq7bhRAIps2ces-62" value="d64" style="rounded=0;whiteSpace=wrap;html=1;" parent="1" vertex="1">
          <mxGeometry x="960" y="360" width="40" height="40" as="geometry" />
        </mxCell>
        <mxCell id="vtVKMghq7bhRAIps2ces-63" value="" style="endArrow=classic;html=1;rounded=0;exitX=1;exitY=0.5;exitDx=0;exitDy=0;" parent="1" edge="1">
          <mxGeometry width="50" height="50" relative="1" as="geometry">
            <mxPoint x="1000" y="380" as="sourcePoint" />
            <mxPoint x="1040" y="380" as="targetPoint" />
          </mxGeometry>
        </mxCell>
        <mxCell id="vtVKMghq7bhRAIps2ces-64" value="d63" style="rounded=0;whiteSpace=wrap;html=1;" parent="1" vertex="1">
          <mxGeometry x="1040" y="360" width="40" height="40" as="geometry" />
        </mxCell>
        <mxCell id="vtVKMghq7bhRAIps2ces-65" value="" style="endArrow=classic;html=1;rounded=0;exitX=1;exitY=0.5;exitDx=0;exitDy=0;" parent="1" edge="1">
          <mxGeometry width="50" height="50" relative="1" as="geometry">
            <mxPoint x="920" y="379.76" as="sourcePoint" />
            <mxPoint x="960" y="379.76" as="targetPoint" />
          </mxGeometry>
        </mxCell>
        <mxCell id="vtVKMghq7bhRAIps2ces-66" value="d62" style="rounded=0;whiteSpace=wrap;html=1;" parent="1" vertex="1">
          <mxGeometry x="400" y="440" width="40" height="40" as="geometry" />
        </mxCell>
        <mxCell id="vtVKMghq7bhRAIps2ces-67" value="" style="endArrow=classic;html=1;rounded=0;exitX=1;exitY=0.5;exitDx=0;exitDy=0;" parent="1" source="vtVKMghq7bhRAIps2ces-66" edge="1">
          <mxGeometry width="50" height="50" relative="1" as="geometry">
            <mxPoint x="460" y="460" as="sourcePoint" />
            <mxPoint x="480" y="460" as="targetPoint" />
          </mxGeometry>
        </mxCell>
        <mxCell id="vtVKMghq7bhRAIps2ces-68" value="" style="endArrow=classic;html=1;rounded=0;exitX=1;exitY=0.5;exitDx=0;exitDy=0;entryX=0;entryY=0.5;entryDx=0;entryDy=0;" parent="1" target="vtVKMghq7bhRAIps2ces-66" edge="1">
          <mxGeometry width="50" height="50" relative="1" as="geometry">
            <mxPoint x="350" y="460" as="sourcePoint" />
            <mxPoint x="650" y="540" as="targetPoint" />
          </mxGeometry>
        </mxCell>
        <mxCell id="vtVKMghq7bhRAIps2ces-69" value="d61" style="rounded=0;whiteSpace=wrap;html=1;" parent="1" vertex="1">
          <mxGeometry x="480" y="440" width="40" height="40" as="geometry" />
        </mxCell>
        <mxCell id="vtVKMghq7bhRAIps2ces-70" value="" style="endArrow=classic;html=1;rounded=0;exitX=1;exitY=0.5;exitDx=0;exitDy=0;" parent="1" edge="1">
          <mxGeometry width="50" height="50" relative="1" as="geometry">
            <mxPoint x="520" y="460" as="sourcePoint" />
            <mxPoint x="560" y="460" as="targetPoint" />
          </mxGeometry>
        </mxCell>
        <mxCell id="vtVKMghq7bhRAIps2ces-71" value="d60" style="rounded=0;whiteSpace=wrap;html=1;" parent="1" vertex="1">
          <mxGeometry x="560" y="440" width="40" height="40" as="geometry" />
        </mxCell>
        <mxCell id="vtVKMghq7bhRAIps2ces-72" value="" style="endArrow=classic;html=1;rounded=0;exitX=1;exitY=0.5;exitDx=0;exitDy=0;" parent="1" edge="1">
          <mxGeometry width="50" height="50" relative="1" as="geometry">
            <mxPoint x="600" y="460" as="sourcePoint" />
            <mxPoint x="640" y="460" as="targetPoint" />
          </mxGeometry>
        </mxCell>
        <mxCell id="vtVKMghq7bhRAIps2ces-73" value="d59" style="rounded=0;whiteSpace=wrap;html=1;" parent="1" vertex="1">
          <mxGeometry x="640" y="440" width="40" height="40" as="geometry" />
        </mxCell>
        <mxCell id="vtVKMghq7bhRAIps2ces-74" value="" style="endArrow=classic;html=1;rounded=0;exitX=1;exitY=0.5;exitDx=0;exitDy=0;" parent="1" edge="1">
          <mxGeometry width="50" height="50" relative="1" as="geometry">
            <mxPoint x="680" y="460" as="sourcePoint" />
            <mxPoint x="720" y="460" as="targetPoint" />
          </mxGeometry>
        </mxCell>
        <mxCell id="vtVKMghq7bhRAIps2ces-75" value="d58" style="rounded=0;whiteSpace=wrap;html=1;" parent="1" vertex="1">
          <mxGeometry x="720" y="440" width="40" height="40" as="geometry" />
        </mxCell>
        <mxCell id="vtVKMghq7bhRAIps2ces-76" value="" style="endArrow=classic;html=1;rounded=0;exitX=1;exitY=0.5;exitDx=0;exitDy=0;" parent="1" edge="1">
          <mxGeometry width="50" height="50" relative="1" as="geometry">
            <mxPoint x="760" y="460" as="sourcePoint" />
            <mxPoint x="800" y="460" as="targetPoint" />
          </mxGeometry>
        </mxCell>
        <mxCell id="vtVKMghq7bhRAIps2ces-77" value="d57" style="rounded=0;whiteSpace=wrap;html=1;" parent="1" vertex="1">
          <mxGeometry x="800" y="440" width="40" height="40" as="geometry" />
        </mxCell>
        <mxCell id="vtVKMghq7bhRAIps2ces-78" value="" style="endArrow=classic;html=1;rounded=0;exitX=1;exitY=0.5;exitDx=0;exitDy=0;" parent="1" edge="1">
          <mxGeometry width="50" height="50" relative="1" as="geometry">
            <mxPoint x="840" y="460" as="sourcePoint" />
            <mxPoint x="880" y="460" as="targetPoint" />
          </mxGeometry>
        </mxCell>
        <mxCell id="vtVKMghq7bhRAIps2ces-79" value="d56" style="rounded=0;whiteSpace=wrap;html=1;" parent="1" vertex="1">
          <mxGeometry x="880" y="440" width="40" height="40" as="geometry" />
        </mxCell>
        <mxCell id="vtVKMghq7bhRAIps2ces-80" value="d55" style="rounded=0;whiteSpace=wrap;html=1;" parent="1" vertex="1">
          <mxGeometry x="960" y="440" width="40" height="40" as="geometry" />
        </mxCell>
        <mxCell id="vtVKMghq7bhRAIps2ces-81" value="" style="endArrow=classic;html=1;rounded=0;exitX=1;exitY=0.5;exitDx=0;exitDy=0;" parent="1" edge="1">
          <mxGeometry width="50" height="50" relative="1" as="geometry">
            <mxPoint x="1000" y="460" as="sourcePoint" />
            <mxPoint x="1040" y="460" as="targetPoint" />
          </mxGeometry>
        </mxCell>
        <mxCell id="vtVKMghq7bhRAIps2ces-82" value="d54" style="rounded=0;whiteSpace=wrap;html=1;" parent="1" vertex="1">
          <mxGeometry x="1040" y="440" width="40" height="40" as="geometry" />
        </mxCell>
        <mxCell id="vtVKMghq7bhRAIps2ces-83" value="" style="endArrow=classic;html=1;rounded=0;exitX=1;exitY=0.5;exitDx=0;exitDy=0;" parent="1" edge="1">
          <mxGeometry width="50" height="50" relative="1" as="geometry">
            <mxPoint x="920" y="459.76" as="sourcePoint" />
            <mxPoint x="960" y="459.76" as="targetPoint" />
          </mxGeometry>
        </mxCell>
        <mxCell id="vtVKMghq7bhRAIps2ces-84" value="d53" style="rounded=0;whiteSpace=wrap;html=1;" parent="1" vertex="1">
          <mxGeometry x="400" y="520" width="40" height="40" as="geometry" />
        </mxCell>
        <mxCell id="vtVKMghq7bhRAIps2ces-85" value="" style="endArrow=classic;html=1;rounded=0;exitX=1;exitY=0.5;exitDx=0;exitDy=0;" parent="1" source="vtVKMghq7bhRAIps2ces-84" edge="1">
          <mxGeometry width="50" height="50" relative="1" as="geometry">
            <mxPoint x="460" y="540" as="sourcePoint" />
            <mxPoint x="480" y="540" as="targetPoint" />
          </mxGeometry>
        </mxCell>
        <mxCell id="vtVKMghq7bhRAIps2ces-86" value="" style="endArrow=classic;html=1;rounded=0;exitX=1;exitY=0.5;exitDx=0;exitDy=0;entryX=0;entryY=0.5;entryDx=0;entryDy=0;" parent="1" target="vtVKMghq7bhRAIps2ces-84" edge="1">
          <mxGeometry width="50" height="50" relative="1" as="geometry">
            <mxPoint x="350" y="540" as="sourcePoint" />
            <mxPoint x="650" y="620" as="targetPoint" />
          </mxGeometry>
        </mxCell>
        <mxCell id="vtVKMghq7bhRAIps2ces-87" value="d52" style="rounded=0;whiteSpace=wrap;html=1;" parent="1" vertex="1">
          <mxGeometry x="480" y="520" width="40" height="40" as="geometry" />
        </mxCell>
        <mxCell id="vtVKMghq7bhRAIps2ces-88" value="" style="endArrow=classic;html=1;rounded=0;exitX=1;exitY=0.5;exitDx=0;exitDy=0;" parent="1" edge="1">
          <mxGeometry width="50" height="50" relative="1" as="geometry">
            <mxPoint x="520" y="540" as="sourcePoint" />
            <mxPoint x="560" y="540" as="targetPoint" />
          </mxGeometry>
        </mxCell>
        <mxCell id="vtVKMghq7bhRAIps2ces-89" value="d51" style="rounded=0;whiteSpace=wrap;html=1;" parent="1" vertex="1">
          <mxGeometry x="560" y="520" width="40" height="40" as="geometry" />
        </mxCell>
        <mxCell id="vtVKMghq7bhRAIps2ces-90" value="" style="endArrow=classic;html=1;rounded=0;exitX=1;exitY=0.5;exitDx=0;exitDy=0;" parent="1" edge="1">
          <mxGeometry width="50" height="50" relative="1" as="geometry">
            <mxPoint x="600" y="540" as="sourcePoint" />
            <mxPoint x="640" y="540" as="targetPoint" />
          </mxGeometry>
        </mxCell>
        <mxCell id="vtVKMghq7bhRAIps2ces-91" value="d50" style="rounded=0;whiteSpace=wrap;html=1;" parent="1" vertex="1">
          <mxGeometry x="640" y="520" width="40" height="40" as="geometry" />
        </mxCell>
        <mxCell id="vtVKMghq7bhRAIps2ces-92" value="" style="endArrow=classic;html=1;rounded=0;exitX=1;exitY=0.5;exitDx=0;exitDy=0;" parent="1" edge="1">
          <mxGeometry width="50" height="50" relative="1" as="geometry">
            <mxPoint x="680" y="540" as="sourcePoint" />
            <mxPoint x="720" y="540" as="targetPoint" />
          </mxGeometry>
        </mxCell>
        <mxCell id="vtVKMghq7bhRAIps2ces-93" value="d49" style="rounded=0;whiteSpace=wrap;html=1;" parent="1" vertex="1">
          <mxGeometry x="720" y="520" width="40" height="40" as="geometry" />
        </mxCell>
        <mxCell id="vtVKMghq7bhRAIps2ces-94" value="" style="endArrow=classic;html=1;rounded=0;exitX=1;exitY=0.5;exitDx=0;exitDy=0;" parent="1" edge="1">
          <mxGeometry width="50" height="50" relative="1" as="geometry">
            <mxPoint x="760" y="540" as="sourcePoint" />
            <mxPoint x="800" y="540" as="targetPoint" />
          </mxGeometry>
        </mxCell>
        <mxCell id="vtVKMghq7bhRAIps2ces-192" value="" style="edgeStyle=orthogonalEdgeStyle;rounded=0;orthogonalLoop=1;jettySize=auto;html=1;" parent="1" source="vtVKMghq7bhRAIps2ces-95" target="vtVKMghq7bhRAIps2ces-97" edge="1">
          <mxGeometry relative="1" as="geometry" />
        </mxCell>
        <mxCell id="vtVKMghq7bhRAIps2ces-95" value="d48" style="rounded=0;whiteSpace=wrap;html=1;" parent="1" vertex="1">
          <mxGeometry x="800" y="520" width="40" height="40" as="geometry" />
        </mxCell>
        <mxCell id="vtVKMghq7bhRAIps2ces-96" value="" style="endArrow=classic;html=1;rounded=0;exitX=1;exitY=0.5;exitDx=0;exitDy=0;" parent="1" edge="1">
          <mxGeometry width="50" height="50" relative="1" as="geometry">
            <mxPoint x="840" y="540" as="sourcePoint" />
            <mxPoint x="880" y="540" as="targetPoint" />
          </mxGeometry>
        </mxCell>
        <mxCell id="vtVKMghq7bhRAIps2ces-97" value="d47" style="rounded=0;whiteSpace=wrap;html=1;" parent="1" vertex="1">
          <mxGeometry x="880" y="520" width="40" height="40" as="geometry" />
        </mxCell>
        <mxCell id="vtVKMghq7bhRAIps2ces-98" value="d46" style="rounded=0;whiteSpace=wrap;html=1;" parent="1" vertex="1">
          <mxGeometry x="960" y="520" width="40" height="40" as="geometry" />
        </mxCell>
        <mxCell id="vtVKMghq7bhRAIps2ces-99" value="" style="endArrow=classic;html=1;rounded=0;exitX=1;exitY=0.5;exitDx=0;exitDy=0;" parent="1" edge="1">
          <mxGeometry width="50" height="50" relative="1" as="geometry">
            <mxPoint x="1000" y="540" as="sourcePoint" />
            <mxPoint x="1040" y="540" as="targetPoint" />
          </mxGeometry>
        </mxCell>
        <mxCell id="vtVKMghq7bhRAIps2ces-100" value="d45" style="rounded=0;whiteSpace=wrap;html=1;" parent="1" vertex="1">
          <mxGeometry x="1040" y="520" width="40" height="40" as="geometry" />
        </mxCell>
        <mxCell id="vtVKMghq7bhRAIps2ces-101" value="" style="endArrow=classic;html=1;rounded=0;exitX=1;exitY=0.5;exitDx=0;exitDy=0;" parent="1" edge="1">
          <mxGeometry width="50" height="50" relative="1" as="geometry">
            <mxPoint x="920" y="539.76" as="sourcePoint" />
            <mxPoint x="960" y="539.76" as="targetPoint" />
          </mxGeometry>
        </mxCell>
        <mxCell id="vtVKMghq7bhRAIps2ces-102" value="d44" style="rounded=0;whiteSpace=wrap;html=1;" parent="1" vertex="1">
          <mxGeometry x="400" y="600" width="40" height="40" as="geometry" />
        </mxCell>
        <mxCell id="vtVKMghq7bhRAIps2ces-103" value="" style="endArrow=classic;html=1;rounded=0;exitX=1;exitY=0.5;exitDx=0;exitDy=0;" parent="1" source="vtVKMghq7bhRAIps2ces-102" edge="1">
          <mxGeometry width="50" height="50" relative="1" as="geometry">
            <mxPoint x="460" y="620" as="sourcePoint" />
            <mxPoint x="480" y="620" as="targetPoint" />
          </mxGeometry>
        </mxCell>
        <mxCell id="vtVKMghq7bhRAIps2ces-104" value="" style="endArrow=classic;html=1;rounded=0;exitX=1;exitY=0.5;exitDx=0;exitDy=0;entryX=0;entryY=0.5;entryDx=0;entryDy=0;" parent="1" target="vtVKMghq7bhRAIps2ces-102" edge="1">
          <mxGeometry width="50" height="50" relative="1" as="geometry">
            <mxPoint x="350" y="620" as="sourcePoint" />
            <mxPoint x="650" y="700" as="targetPoint" />
          </mxGeometry>
        </mxCell>
        <mxCell id="vtVKMghq7bhRAIps2ces-105" value="d43" style="rounded=0;whiteSpace=wrap;html=1;" parent="1" vertex="1">
          <mxGeometry x="480" y="600" width="40" height="40" as="geometry" />
        </mxCell>
        <mxCell id="vtVKMghq7bhRAIps2ces-106" value="" style="endArrow=classic;html=1;rounded=0;exitX=1;exitY=0.5;exitDx=0;exitDy=0;" parent="1" edge="1">
          <mxGeometry width="50" height="50" relative="1" as="geometry">
            <mxPoint x="520" y="620" as="sourcePoint" />
            <mxPoint x="560" y="620" as="targetPoint" />
          </mxGeometry>
        </mxCell>
        <mxCell id="vtVKMghq7bhRAIps2ces-107" value="d42" style="rounded=0;whiteSpace=wrap;html=1;" parent="1" vertex="1">
          <mxGeometry x="560" y="600" width="40" height="40" as="geometry" />
        </mxCell>
        <mxCell id="vtVKMghq7bhRAIps2ces-108" value="" style="endArrow=classic;html=1;rounded=0;exitX=1;exitY=0.5;exitDx=0;exitDy=0;" parent="1" edge="1">
          <mxGeometry width="50" height="50" relative="1" as="geometry">
            <mxPoint x="600" y="620" as="sourcePoint" />
            <mxPoint x="640" y="620" as="targetPoint" />
          </mxGeometry>
        </mxCell>
        <mxCell id="vtVKMghq7bhRAIps2ces-109" value="d41" style="rounded=0;whiteSpace=wrap;html=1;" parent="1" vertex="1">
          <mxGeometry x="640" y="600" width="40" height="40" as="geometry" />
        </mxCell>
        <mxCell id="vtVKMghq7bhRAIps2ces-110" value="" style="endArrow=classic;html=1;rounded=0;exitX=1;exitY=0.5;exitDx=0;exitDy=0;" parent="1" edge="1">
          <mxGeometry width="50" height="50" relative="1" as="geometry">
            <mxPoint x="680" y="620" as="sourcePoint" />
            <mxPoint x="720" y="620" as="targetPoint" />
          </mxGeometry>
        </mxCell>
        <mxCell id="vtVKMghq7bhRAIps2ces-111" value="d40" style="rounded=0;whiteSpace=wrap;html=1;" parent="1" vertex="1">
          <mxGeometry x="720" y="600" width="40" height="40" as="geometry" />
        </mxCell>
        <mxCell id="vtVKMghq7bhRAIps2ces-112" value="" style="endArrow=classic;html=1;rounded=0;exitX=1;exitY=0.5;exitDx=0;exitDy=0;" parent="1" edge="1">
          <mxGeometry width="50" height="50" relative="1" as="geometry">
            <mxPoint x="760" y="620" as="sourcePoint" />
            <mxPoint x="800" y="620" as="targetPoint" />
          </mxGeometry>
        </mxCell>
        <mxCell id="vtVKMghq7bhRAIps2ces-113" value="d39" style="rounded=0;whiteSpace=wrap;html=1;" parent="1" vertex="1">
          <mxGeometry x="800" y="600" width="40" height="40" as="geometry" />
        </mxCell>
        <mxCell id="vtVKMghq7bhRAIps2ces-114" value="" style="endArrow=classic;html=1;rounded=0;exitX=1;exitY=0.5;exitDx=0;exitDy=0;" parent="1" edge="1">
          <mxGeometry width="50" height="50" relative="1" as="geometry">
            <mxPoint x="840" y="620" as="sourcePoint" />
            <mxPoint x="880" y="620" as="targetPoint" />
          </mxGeometry>
        </mxCell>
        <mxCell id="vtVKMghq7bhRAIps2ces-115" value="d38" style="rounded=0;whiteSpace=wrap;html=1;" parent="1" vertex="1">
          <mxGeometry x="880" y="600" width="40" height="40" as="geometry" />
        </mxCell>
        <mxCell id="vtVKMghq7bhRAIps2ces-116" value="d37" style="rounded=0;whiteSpace=wrap;html=1;" parent="1" vertex="1">
          <mxGeometry x="960" y="600" width="40" height="40" as="geometry" />
        </mxCell>
        <mxCell id="vtVKMghq7bhRAIps2ces-117" value="" style="endArrow=classic;html=1;rounded=0;exitX=1;exitY=0.5;exitDx=0;exitDy=0;" parent="1" edge="1">
          <mxGeometry width="50" height="50" relative="1" as="geometry">
            <mxPoint x="1000" y="620" as="sourcePoint" />
            <mxPoint x="1040" y="620" as="targetPoint" />
          </mxGeometry>
        </mxCell>
        <mxCell id="vtVKMghq7bhRAIps2ces-118" value="d36" style="rounded=0;whiteSpace=wrap;html=1;" parent="1" vertex="1">
          <mxGeometry x="1040" y="600" width="40" height="40" as="geometry" />
        </mxCell>
        <mxCell id="vtVKMghq7bhRAIps2ces-119" value="" style="endArrow=classic;html=1;rounded=0;exitX=1;exitY=0.5;exitDx=0;exitDy=0;" parent="1" edge="1">
          <mxGeometry width="50" height="50" relative="1" as="geometry">
            <mxPoint x="920" y="619.76" as="sourcePoint" />
            <mxPoint x="960" y="619.76" as="targetPoint" />
          </mxGeometry>
        </mxCell>
        <mxCell id="vtVKMghq7bhRAIps2ces-120" value="d35" style="rounded=0;whiteSpace=wrap;html=1;" parent="1" vertex="1">
          <mxGeometry x="400" y="680" width="40" height="40" as="geometry" />
        </mxCell>
        <mxCell id="vtVKMghq7bhRAIps2ces-121" value="" style="endArrow=classic;html=1;rounded=0;exitX=1;exitY=0.5;exitDx=0;exitDy=0;" parent="1" source="vtVKMghq7bhRAIps2ces-120" edge="1">
          <mxGeometry width="50" height="50" relative="1" as="geometry">
            <mxPoint x="460" y="700" as="sourcePoint" />
            <mxPoint x="480" y="700" as="targetPoint" />
          </mxGeometry>
        </mxCell>
        <mxCell id="vtVKMghq7bhRAIps2ces-122" value="" style="endArrow=classic;html=1;rounded=0;exitX=1;exitY=0.5;exitDx=0;exitDy=0;entryX=0;entryY=0.5;entryDx=0;entryDy=0;" parent="1" target="vtVKMghq7bhRAIps2ces-120" edge="1">
          <mxGeometry width="50" height="50" relative="1" as="geometry">
            <mxPoint x="350" y="700" as="sourcePoint" />
            <mxPoint x="650" y="780" as="targetPoint" />
          </mxGeometry>
        </mxCell>
        <mxCell id="vtVKMghq7bhRAIps2ces-123" value="d34" style="rounded=0;whiteSpace=wrap;html=1;" parent="1" vertex="1">
          <mxGeometry x="480" y="680" width="40" height="40" as="geometry" />
        </mxCell>
        <mxCell id="vtVKMghq7bhRAIps2ces-124" value="" style="endArrow=classic;html=1;rounded=0;exitX=1;exitY=0.5;exitDx=0;exitDy=0;" parent="1" edge="1">
          <mxGeometry width="50" height="50" relative="1" as="geometry">
            <mxPoint x="520" y="700" as="sourcePoint" />
            <mxPoint x="560" y="700" as="targetPoint" />
          </mxGeometry>
        </mxCell>
        <mxCell id="vtVKMghq7bhRAIps2ces-125" value="d33" style="rounded=0;whiteSpace=wrap;html=1;" parent="1" vertex="1">
          <mxGeometry x="560" y="680" width="40" height="40" as="geometry" />
        </mxCell>
        <mxCell id="vtVKMghq7bhRAIps2ces-126" value="" style="endArrow=classic;html=1;rounded=0;exitX=1;exitY=0.5;exitDx=0;exitDy=0;" parent="1" edge="1">
          <mxGeometry width="50" height="50" relative="1" as="geometry">
            <mxPoint x="600" y="700" as="sourcePoint" />
            <mxPoint x="640" y="700" as="targetPoint" />
          </mxGeometry>
        </mxCell>
        <mxCell id="vtVKMghq7bhRAIps2ces-127" value="d32" style="rounded=0;whiteSpace=wrap;html=1;" parent="1" vertex="1">
          <mxGeometry x="640" y="680" width="40" height="40" as="geometry" />
        </mxCell>
        <mxCell id="vtVKMghq7bhRAIps2ces-128" value="" style="endArrow=classic;html=1;rounded=0;exitX=1;exitY=0.5;exitDx=0;exitDy=0;" parent="1" edge="1">
          <mxGeometry width="50" height="50" relative="1" as="geometry">
            <mxPoint x="680" y="700" as="sourcePoint" />
            <mxPoint x="720" y="700" as="targetPoint" />
          </mxGeometry>
        </mxCell>
        <mxCell id="vtVKMghq7bhRAIps2ces-129" value="d31" style="rounded=0;whiteSpace=wrap;html=1;" parent="1" vertex="1">
          <mxGeometry x="720" y="680" width="40" height="40" as="geometry" />
        </mxCell>
        <mxCell id="vtVKMghq7bhRAIps2ces-130" value="" style="endArrow=classic;html=1;rounded=0;exitX=1;exitY=0.5;exitDx=0;exitDy=0;" parent="1" edge="1">
          <mxGeometry width="50" height="50" relative="1" as="geometry">
            <mxPoint x="760" y="700" as="sourcePoint" />
            <mxPoint x="800" y="700" as="targetPoint" />
          </mxGeometry>
        </mxCell>
        <mxCell id="vtVKMghq7bhRAIps2ces-131" value="d30" style="rounded=0;whiteSpace=wrap;html=1;" parent="1" vertex="1">
          <mxGeometry x="800" y="680" width="40" height="40" as="geometry" />
        </mxCell>
        <mxCell id="vtVKMghq7bhRAIps2ces-132" value="" style="endArrow=classic;html=1;rounded=0;exitX=1;exitY=0.5;exitDx=0;exitDy=0;" parent="1" edge="1">
          <mxGeometry width="50" height="50" relative="1" as="geometry">
            <mxPoint x="840" y="700" as="sourcePoint" />
            <mxPoint x="880" y="700" as="targetPoint" />
          </mxGeometry>
        </mxCell>
        <mxCell id="vtVKMghq7bhRAIps2ces-133" value="d29" style="rounded=0;whiteSpace=wrap;html=1;" parent="1" vertex="1">
          <mxGeometry x="880" y="680" width="40" height="40" as="geometry" />
        </mxCell>
        <mxCell id="vtVKMghq7bhRAIps2ces-134" value="d28" style="rounded=0;whiteSpace=wrap;html=1;" parent="1" vertex="1">
          <mxGeometry x="960" y="680" width="40" height="40" as="geometry" />
        </mxCell>
        <mxCell id="vtVKMghq7bhRAIps2ces-135" value="" style="endArrow=classic;html=1;rounded=0;exitX=1;exitY=0.5;exitDx=0;exitDy=0;" parent="1" edge="1">
          <mxGeometry width="50" height="50" relative="1" as="geometry">
            <mxPoint x="1000" y="700" as="sourcePoint" />
            <mxPoint x="1040" y="700" as="targetPoint" />
          </mxGeometry>
        </mxCell>
        <mxCell id="vtVKMghq7bhRAIps2ces-136" value="d27" style="rounded=0;whiteSpace=wrap;html=1;" parent="1" vertex="1">
          <mxGeometry x="1040" y="680" width="40" height="40" as="geometry" />
        </mxCell>
        <mxCell id="vtVKMghq7bhRAIps2ces-137" value="" style="endArrow=classic;html=1;rounded=0;exitX=1;exitY=0.5;exitDx=0;exitDy=0;" parent="1" edge="1">
          <mxGeometry width="50" height="50" relative="1" as="geometry">
            <mxPoint x="920" y="699.76" as="sourcePoint" />
            <mxPoint x="960" y="699.76" as="targetPoint" />
          </mxGeometry>
        </mxCell>
        <mxCell id="vtVKMghq7bhRAIps2ces-138" value="d26" style="rounded=0;whiteSpace=wrap;html=1;" parent="1" vertex="1">
          <mxGeometry x="400" y="760" width="40" height="40" as="geometry" />
        </mxCell>
        <mxCell id="vtVKMghq7bhRAIps2ces-139" value="" style="endArrow=classic;html=1;rounded=0;exitX=1;exitY=0.5;exitDx=0;exitDy=0;" parent="1" source="vtVKMghq7bhRAIps2ces-138" edge="1">
          <mxGeometry width="50" height="50" relative="1" as="geometry">
            <mxPoint x="460" y="780" as="sourcePoint" />
            <mxPoint x="480" y="780" as="targetPoint" />
          </mxGeometry>
        </mxCell>
        <mxCell id="vtVKMghq7bhRAIps2ces-140" value="" style="endArrow=classic;html=1;rounded=0;exitX=1;exitY=0.5;exitDx=0;exitDy=0;entryX=0;entryY=0.5;entryDx=0;entryDy=0;" parent="1" target="vtVKMghq7bhRAIps2ces-138" edge="1">
          <mxGeometry width="50" height="50" relative="1" as="geometry">
            <mxPoint x="350" y="780" as="sourcePoint" />
            <mxPoint x="650" y="860" as="targetPoint" />
          </mxGeometry>
        </mxCell>
        <mxCell id="vtVKMghq7bhRAIps2ces-141" value="d25" style="rounded=0;whiteSpace=wrap;html=1;" parent="1" vertex="1">
          <mxGeometry x="480" y="760" width="40" height="40" as="geometry" />
        </mxCell>
        <mxCell id="vtVKMghq7bhRAIps2ces-142" value="" style="endArrow=classic;html=1;rounded=0;exitX=1;exitY=0.5;exitDx=0;exitDy=0;" parent="1" edge="1">
          <mxGeometry width="50" height="50" relative="1" as="geometry">
            <mxPoint x="520" y="780" as="sourcePoint" />
            <mxPoint x="560" y="780" as="targetPoint" />
          </mxGeometry>
        </mxCell>
        <mxCell id="vtVKMghq7bhRAIps2ces-143" value="d24" style="rounded=0;whiteSpace=wrap;html=1;" parent="1" vertex="1">
          <mxGeometry x="560" y="760" width="40" height="40" as="geometry" />
        </mxCell>
        <mxCell id="vtVKMghq7bhRAIps2ces-144" value="" style="endArrow=classic;html=1;rounded=0;exitX=1;exitY=0.5;exitDx=0;exitDy=0;" parent="1" edge="1">
          <mxGeometry width="50" height="50" relative="1" as="geometry">
            <mxPoint x="600" y="780" as="sourcePoint" />
            <mxPoint x="640" y="780" as="targetPoint" />
          </mxGeometry>
        </mxCell>
        <mxCell id="vtVKMghq7bhRAIps2ces-145" value="d23" style="rounded=0;whiteSpace=wrap;html=1;" parent="1" vertex="1">
          <mxGeometry x="640" y="760" width="40" height="40" as="geometry" />
        </mxCell>
        <mxCell id="vtVKMghq7bhRAIps2ces-146" value="" style="endArrow=classic;html=1;rounded=0;exitX=1;exitY=0.5;exitDx=0;exitDy=0;" parent="1" edge="1">
          <mxGeometry width="50" height="50" relative="1" as="geometry">
            <mxPoint x="680" y="780" as="sourcePoint" />
            <mxPoint x="720" y="780" as="targetPoint" />
          </mxGeometry>
        </mxCell>
        <mxCell id="vtVKMghq7bhRAIps2ces-147" value="d22" style="rounded=0;whiteSpace=wrap;html=1;" parent="1" vertex="1">
          <mxGeometry x="720" y="760" width="40" height="40" as="geometry" />
        </mxCell>
        <mxCell id="vtVKMghq7bhRAIps2ces-148" value="" style="endArrow=classic;html=1;rounded=0;exitX=1;exitY=0.5;exitDx=0;exitDy=0;" parent="1" edge="1">
          <mxGeometry width="50" height="50" relative="1" as="geometry">
            <mxPoint x="760" y="780" as="sourcePoint" />
            <mxPoint x="800" y="780" as="targetPoint" />
          </mxGeometry>
        </mxCell>
        <mxCell id="vtVKMghq7bhRAIps2ces-149" value="d21" style="rounded=0;whiteSpace=wrap;html=1;" parent="1" vertex="1">
          <mxGeometry x="800" y="760" width="40" height="40" as="geometry" />
        </mxCell>
        <mxCell id="vtVKMghq7bhRAIps2ces-150" value="" style="endArrow=classic;html=1;rounded=0;exitX=1;exitY=0.5;exitDx=0;exitDy=0;" parent="1" edge="1">
          <mxGeometry width="50" height="50" relative="1" as="geometry">
            <mxPoint x="840" y="780" as="sourcePoint" />
            <mxPoint x="880" y="780" as="targetPoint" />
          </mxGeometry>
        </mxCell>
        <mxCell id="vtVKMghq7bhRAIps2ces-151" value="d20" style="rounded=0;whiteSpace=wrap;html=1;" parent="1" vertex="1">
          <mxGeometry x="880" y="760" width="40" height="40" as="geometry" />
        </mxCell>
        <mxCell id="vtVKMghq7bhRAIps2ces-152" value="d19" style="rounded=0;whiteSpace=wrap;html=1;" parent="1" vertex="1">
          <mxGeometry x="960" y="760" width="40" height="40" as="geometry" />
        </mxCell>
        <mxCell id="vtVKMghq7bhRAIps2ces-153" value="" style="endArrow=classic;html=1;rounded=0;exitX=1;exitY=0.5;exitDx=0;exitDy=0;" parent="1" edge="1">
          <mxGeometry width="50" height="50" relative="1" as="geometry">
            <mxPoint x="1000" y="780" as="sourcePoint" />
            <mxPoint x="1040" y="780" as="targetPoint" />
          </mxGeometry>
        </mxCell>
        <mxCell id="vtVKMghq7bhRAIps2ces-154" value="d18" style="rounded=0;whiteSpace=wrap;html=1;" parent="1" vertex="1">
          <mxGeometry x="1040" y="760" width="40" height="40" as="geometry" />
        </mxCell>
        <mxCell id="vtVKMghq7bhRAIps2ces-155" value="" style="endArrow=classic;html=1;rounded=0;exitX=1;exitY=0.5;exitDx=0;exitDy=0;" parent="1" edge="1">
          <mxGeometry width="50" height="50" relative="1" as="geometry">
            <mxPoint x="920" y="779.76" as="sourcePoint" />
            <mxPoint x="960" y="779.76" as="targetPoint" />
          </mxGeometry>
        </mxCell>
        <mxCell id="vtVKMghq7bhRAIps2ces-156" value="d17" style="rounded=0;whiteSpace=wrap;html=1;" parent="1" vertex="1">
          <mxGeometry x="400" y="840" width="40" height="40" as="geometry" />
        </mxCell>
        <mxCell id="vtVKMghq7bhRAIps2ces-157" value="" style="endArrow=classic;html=1;rounded=0;exitX=1;exitY=0.5;exitDx=0;exitDy=0;" parent="1" source="vtVKMghq7bhRAIps2ces-156" edge="1">
          <mxGeometry width="50" height="50" relative="1" as="geometry">
            <mxPoint x="460" y="860" as="sourcePoint" />
            <mxPoint x="480" y="860" as="targetPoint" />
          </mxGeometry>
        </mxCell>
        <mxCell id="vtVKMghq7bhRAIps2ces-158" value="" style="endArrow=classic;html=1;rounded=0;exitX=1;exitY=0.5;exitDx=0;exitDy=0;entryX=0;entryY=0.5;entryDx=0;entryDy=0;" parent="1" target="vtVKMghq7bhRAIps2ces-156" edge="1">
          <mxGeometry width="50" height="50" relative="1" as="geometry">
            <mxPoint x="350" y="860" as="sourcePoint" />
            <mxPoint x="650" y="940" as="targetPoint" />
          </mxGeometry>
        </mxCell>
        <mxCell id="vtVKMghq7bhRAIps2ces-159" value="d16" style="rounded=0;whiteSpace=wrap;html=1;" parent="1" vertex="1">
          <mxGeometry x="480" y="840" width="40" height="40" as="geometry" />
        </mxCell>
        <mxCell id="vtVKMghq7bhRAIps2ces-160" value="" style="endArrow=classic;html=1;rounded=0;exitX=1;exitY=0.5;exitDx=0;exitDy=0;" parent="1" edge="1">
          <mxGeometry width="50" height="50" relative="1" as="geometry">
            <mxPoint x="520" y="860" as="sourcePoint" />
            <mxPoint x="560" y="860" as="targetPoint" />
          </mxGeometry>
        </mxCell>
        <mxCell id="vtVKMghq7bhRAIps2ces-161" value="d15" style="rounded=0;whiteSpace=wrap;html=1;" parent="1" vertex="1">
          <mxGeometry x="560" y="840" width="40" height="40" as="geometry" />
        </mxCell>
        <mxCell id="vtVKMghq7bhRAIps2ces-162" value="" style="endArrow=classic;html=1;rounded=0;exitX=1;exitY=0.5;exitDx=0;exitDy=0;" parent="1" edge="1">
          <mxGeometry width="50" height="50" relative="1" as="geometry">
            <mxPoint x="600" y="860" as="sourcePoint" />
            <mxPoint x="640" y="860" as="targetPoint" />
          </mxGeometry>
        </mxCell>
        <mxCell id="vtVKMghq7bhRAIps2ces-163" value="d14" style="rounded=0;whiteSpace=wrap;html=1;" parent="1" vertex="1">
          <mxGeometry x="640" y="840" width="40" height="40" as="geometry" />
        </mxCell>
        <mxCell id="vtVKMghq7bhRAIps2ces-164" value="" style="endArrow=classic;html=1;rounded=0;exitX=1;exitY=0.5;exitDx=0;exitDy=0;" parent="1" edge="1">
          <mxGeometry width="50" height="50" relative="1" as="geometry">
            <mxPoint x="680" y="860" as="sourcePoint" />
            <mxPoint x="720" y="860" as="targetPoint" />
          </mxGeometry>
        </mxCell>
        <mxCell id="vtVKMghq7bhRAIps2ces-165" value="d13" style="rounded=0;whiteSpace=wrap;html=1;" parent="1" vertex="1">
          <mxGeometry x="720" y="840" width="40" height="40" as="geometry" />
        </mxCell>
        <mxCell id="vtVKMghq7bhRAIps2ces-166" value="" style="endArrow=classic;html=1;rounded=0;exitX=1;exitY=0.5;exitDx=0;exitDy=0;" parent="1" edge="1">
          <mxGeometry width="50" height="50" relative="1" as="geometry">
            <mxPoint x="760" y="860" as="sourcePoint" />
            <mxPoint x="800" y="860" as="targetPoint" />
          </mxGeometry>
        </mxCell>
        <mxCell id="vtVKMghq7bhRAIps2ces-167" value="d12" style="rounded=0;whiteSpace=wrap;html=1;" parent="1" vertex="1">
          <mxGeometry x="800" y="840" width="40" height="40" as="geometry" />
        </mxCell>
        <mxCell id="vtVKMghq7bhRAIps2ces-168" value="" style="endArrow=classic;html=1;rounded=0;exitX=1;exitY=0.5;exitDx=0;exitDy=0;" parent="1" edge="1">
          <mxGeometry width="50" height="50" relative="1" as="geometry">
            <mxPoint x="840" y="860" as="sourcePoint" />
            <mxPoint x="880" y="860" as="targetPoint" />
          </mxGeometry>
        </mxCell>
        <mxCell id="vtVKMghq7bhRAIps2ces-169" value="d11" style="rounded=0;whiteSpace=wrap;html=1;" parent="1" vertex="1">
          <mxGeometry x="880" y="840" width="40" height="40" as="geometry" />
        </mxCell>
        <mxCell id="vtVKMghq7bhRAIps2ces-170" value="d10" style="rounded=0;whiteSpace=wrap;html=1;" parent="1" vertex="1">
          <mxGeometry x="960" y="840" width="40" height="40" as="geometry" />
        </mxCell>
        <mxCell id="vtVKMghq7bhRAIps2ces-171" value="" style="endArrow=classic;html=1;rounded=0;exitX=1;exitY=0.5;exitDx=0;exitDy=0;" parent="1" edge="1">
          <mxGeometry width="50" height="50" relative="1" as="geometry">
            <mxPoint x="1000" y="860" as="sourcePoint" />
            <mxPoint x="1040" y="860" as="targetPoint" />
          </mxGeometry>
        </mxCell>
        <mxCell id="vtVKMghq7bhRAIps2ces-172" value="d9" style="rounded=0;whiteSpace=wrap;html=1;" parent="1" vertex="1">
          <mxGeometry x="1040" y="840" width="40" height="40" as="geometry" />
        </mxCell>
        <mxCell id="vtVKMghq7bhRAIps2ces-173" value="" style="endArrow=classic;html=1;rounded=0;exitX=1;exitY=0.5;exitDx=0;exitDy=0;" parent="1" edge="1">
          <mxGeometry width="50" height="50" relative="1" as="geometry">
            <mxPoint x="920" y="859.76" as="sourcePoint" />
            <mxPoint x="960" y="859.76" as="targetPoint" />
          </mxGeometry>
        </mxCell>
        <mxCell id="vtVKMghq7bhRAIps2ces-174" value="d8" style="rounded=0;whiteSpace=wrap;html=1;" parent="1" vertex="1">
          <mxGeometry x="400" y="920" width="40" height="40" as="geometry" />
        </mxCell>
        <mxCell id="vtVKMghq7bhRAIps2ces-175" value="" style="endArrow=classic;html=1;rounded=0;exitX=1;exitY=0.5;exitDx=0;exitDy=0;" parent="1" source="vtVKMghq7bhRAIps2ces-174" edge="1">
          <mxGeometry width="50" height="50" relative="1" as="geometry">
            <mxPoint x="460" y="940" as="sourcePoint" />
            <mxPoint x="480" y="940" as="targetPoint" />
          </mxGeometry>
        </mxCell>
        <mxCell id="vtVKMghq7bhRAIps2ces-176" value="" style="endArrow=classic;html=1;rounded=0;exitX=1;exitY=0.5;exitDx=0;exitDy=0;entryX=0;entryY=0.5;entryDx=0;entryDy=0;" parent="1" target="vtVKMghq7bhRAIps2ces-174" edge="1">
          <mxGeometry width="50" height="50" relative="1" as="geometry">
            <mxPoint x="350" y="940" as="sourcePoint" />
            <mxPoint x="650" y="1020" as="targetPoint" />
          </mxGeometry>
        </mxCell>
        <mxCell id="vtVKMghq7bhRAIps2ces-177" value="d7" style="rounded=0;whiteSpace=wrap;html=1;" parent="1" vertex="1">
          <mxGeometry x="480" y="920" width="40" height="40" as="geometry" />
        </mxCell>
        <mxCell id="vtVKMghq7bhRAIps2ces-178" value="" style="endArrow=classic;html=1;rounded=0;exitX=1;exitY=0.5;exitDx=0;exitDy=0;" parent="1" edge="1">
          <mxGeometry width="50" height="50" relative="1" as="geometry">
            <mxPoint x="520" y="940" as="sourcePoint" />
            <mxPoint x="560" y="940" as="targetPoint" />
          </mxGeometry>
        </mxCell>
        <mxCell id="vtVKMghq7bhRAIps2ces-179" value="d6" style="rounded=0;whiteSpace=wrap;html=1;" parent="1" vertex="1">
          <mxGeometry x="560" y="920" width="40" height="40" as="geometry" />
        </mxCell>
        <mxCell id="vtVKMghq7bhRAIps2ces-180" value="" style="endArrow=classic;html=1;rounded=0;exitX=1;exitY=0.5;exitDx=0;exitDy=0;" parent="1" edge="1">
          <mxGeometry width="50" height="50" relative="1" as="geometry">
            <mxPoint x="600" y="940" as="sourcePoint" />
            <mxPoint x="640" y="940" as="targetPoint" />
          </mxGeometry>
        </mxCell>
        <mxCell id="vtVKMghq7bhRAIps2ces-181" value="d5" style="rounded=0;whiteSpace=wrap;html=1;" parent="1" vertex="1">
          <mxGeometry x="640" y="920" width="40" height="40" as="geometry" />
        </mxCell>
        <mxCell id="vtVKMghq7bhRAIps2ces-182" value="" style="endArrow=classic;html=1;rounded=0;exitX=1;exitY=0.5;exitDx=0;exitDy=0;" parent="1" edge="1">
          <mxGeometry width="50" height="50" relative="1" as="geometry">
            <mxPoint x="680" y="940" as="sourcePoint" />
            <mxPoint x="720" y="940" as="targetPoint" />
          </mxGeometry>
        </mxCell>
        <mxCell id="vtVKMghq7bhRAIps2ces-183" value="d4" style="rounded=0;whiteSpace=wrap;html=1;" parent="1" vertex="1">
          <mxGeometry x="720" y="920" width="40" height="40" as="geometry" />
        </mxCell>
        <mxCell id="vtVKMghq7bhRAIps2ces-184" value="" style="endArrow=classic;html=1;rounded=0;exitX=1;exitY=0.5;exitDx=0;exitDy=0;" parent="1" edge="1">
          <mxGeometry width="50" height="50" relative="1" as="geometry">
            <mxPoint x="760" y="940" as="sourcePoint" />
            <mxPoint x="800" y="940" as="targetPoint" />
          </mxGeometry>
        </mxCell>
        <mxCell id="vtVKMghq7bhRAIps2ces-185" value="d3" style="rounded=0;whiteSpace=wrap;html=1;" parent="1" vertex="1">
          <mxGeometry x="800" y="920" width="40" height="40" as="geometry" />
        </mxCell>
        <mxCell id="vtVKMghq7bhRAIps2ces-186" value="" style="endArrow=classic;html=1;rounded=0;exitX=1;exitY=0.5;exitDx=0;exitDy=0;" parent="1" edge="1">
          <mxGeometry width="50" height="50" relative="1" as="geometry">
            <mxPoint x="840" y="940" as="sourcePoint" />
            <mxPoint x="880" y="940" as="targetPoint" />
          </mxGeometry>
        </mxCell>
        <mxCell id="vtVKMghq7bhRAIps2ces-187" value="d2" style="rounded=0;whiteSpace=wrap;html=1;" parent="1" vertex="1">
          <mxGeometry x="880" y="920" width="40" height="40" as="geometry" />
        </mxCell>
        <mxCell id="vtVKMghq7bhRAIps2ces-188" value="d1" style="rounded=0;whiteSpace=wrap;html=1;" parent="1" vertex="1">
          <mxGeometry x="960" y="920" width="40" height="40" as="geometry" />
        </mxCell>
        <mxCell id="vtVKMghq7bhRAIps2ces-189" value="" style="endArrow=classic;html=1;rounded=0;exitX=1;exitY=0.5;exitDx=0;exitDy=0;" parent="1" edge="1">
          <mxGeometry width="50" height="50" relative="1" as="geometry">
            <mxPoint x="1000" y="940" as="sourcePoint" />
            <mxPoint x="1040" y="940" as="targetPoint" />
          </mxGeometry>
        </mxCell>
        <mxCell id="vtVKMghq7bhRAIps2ces-190" value="d0" style="rounded=0;whiteSpace=wrap;html=1;" parent="1" vertex="1">
          <mxGeometry x="1040" y="920" width="40" height="40" as="geometry" />
        </mxCell>
        <mxCell id="vtVKMghq7bhRAIps2ces-191" value="" style="endArrow=classic;html=1;rounded=0;exitX=1;exitY=0.5;exitDx=0;exitDy=0;" parent="1" edge="1">
          <mxGeometry width="50" height="50" relative="1" as="geometry">
            <mxPoint x="920" y="939.76" as="sourcePoint" />
            <mxPoint x="960" y="939.76" as="targetPoint" />
          </mxGeometry>
        </mxCell>
        <mxCell id="vtVKMghq7bhRAIps2ces-359" value="d0" style="rounded=0;whiteSpace=wrap;html=1;container=0;" parent="1" vertex="1">
          <mxGeometry x="1210" y="350" width="40" height="40" as="geometry" />
        </mxCell>
        <mxCell id="vtVKMghq7bhRAIps2ces-360" value="d1" style="rounded=0;whiteSpace=wrap;html=1;container=0;" parent="1" vertex="1">
          <mxGeometry x="1250" y="350" width="40" height="40" as="geometry" />
        </mxCell>
        <mxCell id="vtVKMghq7bhRAIps2ces-361" value="d2" style="rounded=0;whiteSpace=wrap;html=1;container=0;" parent="1" vertex="1">
          <mxGeometry x="1290" y="350" width="40" height="40" as="geometry" />
        </mxCell>
        <mxCell id="vtVKMghq7bhRAIps2ces-362" value="d3" style="rounded=0;whiteSpace=wrap;html=1;container=0;" parent="1" vertex="1">
          <mxGeometry x="1330" y="350" width="40" height="40" as="geometry" />
        </mxCell>
        <mxCell id="vtVKMghq7bhRAIps2ces-363" value="d4" style="rounded=0;whiteSpace=wrap;html=1;container=0;fillColor=#dae8fc;strokeColor=#6c8ebf;" parent="1" vertex="1">
          <mxGeometry x="1370" y="350" width="40" height="40" as="geometry" />
        </mxCell>
        <mxCell id="vtVKMghq7bhRAIps2ces-364" value="d5" style="rounded=0;whiteSpace=wrap;html=1;container=0;" parent="1" vertex="1">
          <mxGeometry x="1410" y="350" width="40" height="40" as="geometry" />
        </mxCell>
        <mxCell id="vtVKMghq7bhRAIps2ces-365" value="d6" style="rounded=0;whiteSpace=wrap;html=1;container=0;" parent="1" vertex="1">
          <mxGeometry x="1450" y="350" width="40" height="40" as="geometry" />
        </mxCell>
        <mxCell id="vtVKMghq7bhRAIps2ces-366" value="d7" style="rounded=0;whiteSpace=wrap;html=1;container=0;" parent="1" vertex="1">
          <mxGeometry x="1490" y="350" width="40" height="40" as="geometry" />
        </mxCell>
        <mxCell id="vtVKMghq7bhRAIps2ces-367" value="d8" style="rounded=0;whiteSpace=wrap;html=1;container=0;" parent="1" vertex="1">
          <mxGeometry x="1530" y="350" width="40" height="40" as="geometry" />
        </mxCell>
        <mxCell id="vtVKMghq7bhRAIps2ces-368" value="d9" style="rounded=0;whiteSpace=wrap;html=1;container=0;" parent="1" vertex="1">
          <mxGeometry x="1210" y="390" width="40" height="40" as="geometry" />
        </mxCell>
        <mxCell id="vtVKMghq7bhRAIps2ces-369" value="d10" style="rounded=0;whiteSpace=wrap;html=1;container=0;" parent="1" vertex="1">
          <mxGeometry x="1250" y="390" width="40" height="40" as="geometry" />
        </mxCell>
        <mxCell id="vtVKMghq7bhRAIps2ces-370" value="d11" style="rounded=0;whiteSpace=wrap;html=1;container=0;" parent="1" vertex="1">
          <mxGeometry x="1290" y="390" width="40" height="40" as="geometry" />
        </mxCell>
        <mxCell id="vtVKMghq7bhRAIps2ces-371" value="d12" style="rounded=0;whiteSpace=wrap;html=1;container=0;" parent="1" vertex="1">
          <mxGeometry x="1330" y="390" width="40" height="40" as="geometry" />
        </mxCell>
        <mxCell id="vtVKMghq7bhRAIps2ces-372" value="d13" style="rounded=0;whiteSpace=wrap;html=1;container=0;fillColor=#dae8fc;strokeColor=#6c8ebf;" parent="1" vertex="1">
          <mxGeometry x="1370" y="390" width="40" height="40" as="geometry" />
        </mxCell>
        <mxCell id="vtVKMghq7bhRAIps2ces-373" value="d14" style="rounded=0;whiteSpace=wrap;html=1;container=0;" parent="1" vertex="1">
          <mxGeometry x="1410" y="390" width="40" height="40" as="geometry" />
        </mxCell>
        <mxCell id="vtVKMghq7bhRAIps2ces-374" value="d15" style="rounded=0;whiteSpace=wrap;html=1;container=0;" parent="1" vertex="1">
          <mxGeometry x="1450" y="390" width="40" height="40" as="geometry" />
        </mxCell>
        <mxCell id="vtVKMghq7bhRAIps2ces-375" value="d16" style="rounded=0;whiteSpace=wrap;html=1;container=0;" parent="1" vertex="1">
          <mxGeometry x="1490" y="390" width="40" height="40" as="geometry" />
        </mxCell>
        <mxCell id="vtVKMghq7bhRAIps2ces-376" value="d17" style="rounded=0;whiteSpace=wrap;html=1;container=0;" parent="1" vertex="1">
          <mxGeometry x="1530" y="390" width="40" height="40" as="geometry" />
        </mxCell>
        <mxCell id="vtVKMghq7bhRAIps2ces-377" value="d18" style="rounded=0;whiteSpace=wrap;html=1;container=0;" parent="1" vertex="1">
          <mxGeometry x="1210" y="430" width="40" height="40" as="geometry" />
        </mxCell>
        <mxCell id="vtVKMghq7bhRAIps2ces-378" value="d19" style="rounded=0;whiteSpace=wrap;html=1;container=0;" parent="1" vertex="1">
          <mxGeometry x="1250" y="430" width="40" height="40" as="geometry" />
        </mxCell>
        <mxCell id="vtVKMghq7bhRAIps2ces-379" value="d20" style="rounded=0;whiteSpace=wrap;html=1;container=0;" parent="1" vertex="1">
          <mxGeometry x="1290" y="430" width="40" height="40" as="geometry" />
        </mxCell>
        <mxCell id="vtVKMghq7bhRAIps2ces-380" value="d21" style="rounded=0;whiteSpace=wrap;html=1;container=0;" parent="1" vertex="1">
          <mxGeometry x="1330" y="430" width="40" height="40" as="geometry" />
        </mxCell>
        <mxCell id="vtVKMghq7bhRAIps2ces-381" value="d22" style="rounded=0;whiteSpace=wrap;html=1;container=0;fillColor=#dae8fc;strokeColor=#6c8ebf;" parent="1" vertex="1">
          <mxGeometry x="1370" y="430" width="40" height="40" as="geometry" />
        </mxCell>
        <mxCell id="vtVKMghq7bhRAIps2ces-382" value="d23" style="rounded=0;whiteSpace=wrap;html=1;container=0;" parent="1" vertex="1">
          <mxGeometry x="1410" y="430" width="40" height="40" as="geometry" />
        </mxCell>
        <mxCell id="vtVKMghq7bhRAIps2ces-383" value="d24" style="rounded=0;whiteSpace=wrap;html=1;container=0;" parent="1" vertex="1">
          <mxGeometry x="1450" y="430" width="40" height="40" as="geometry" />
        </mxCell>
        <mxCell id="vtVKMghq7bhRAIps2ces-384" value="d25" style="rounded=0;whiteSpace=wrap;html=1;container=0;" parent="1" vertex="1">
          <mxGeometry x="1490" y="430" width="40" height="40" as="geometry" />
        </mxCell>
        <mxCell id="vtVKMghq7bhRAIps2ces-385" value="d26" style="rounded=0;whiteSpace=wrap;html=1;container=0;" parent="1" vertex="1">
          <mxGeometry x="1530" y="430" width="40" height="40" as="geometry" />
        </mxCell>
        <mxCell id="vtVKMghq7bhRAIps2ces-386" value="d27" style="rounded=0;whiteSpace=wrap;html=1;container=0;" parent="1" vertex="1">
          <mxGeometry x="1210" y="470" width="40" height="40" as="geometry" />
        </mxCell>
        <mxCell id="vtVKMghq7bhRAIps2ces-387" value="d28" style="rounded=0;whiteSpace=wrap;html=1;container=0;" parent="1" vertex="1">
          <mxGeometry x="1250" y="470" width="40" height="40" as="geometry" />
        </mxCell>
        <mxCell id="vtVKMghq7bhRAIps2ces-388" value="d29" style="rounded=0;whiteSpace=wrap;html=1;container=0;" parent="1" vertex="1">
          <mxGeometry x="1290" y="470" width="40" height="40" as="geometry" />
        </mxCell>
        <mxCell id="vtVKMghq7bhRAIps2ces-389" value="d30" style="rounded=0;whiteSpace=wrap;html=1;container=0;" parent="1" vertex="1">
          <mxGeometry x="1330" y="470" width="40" height="40" as="geometry" />
        </mxCell>
        <mxCell id="vtVKMghq7bhRAIps2ces-390" value="d31" style="rounded=0;whiteSpace=wrap;html=1;container=0;fillColor=#dae8fc;strokeColor=#6c8ebf;" parent="1" vertex="1">
          <mxGeometry x="1370" y="470" width="40" height="40" as="geometry" />
        </mxCell>
        <mxCell id="vtVKMghq7bhRAIps2ces-391" value="d32" style="rounded=0;whiteSpace=wrap;html=1;container=0;" parent="1" vertex="1">
          <mxGeometry x="1410" y="470" width="40" height="40" as="geometry" />
        </mxCell>
        <mxCell id="vtVKMghq7bhRAIps2ces-392" value="d33" style="rounded=0;whiteSpace=wrap;html=1;container=0;" parent="1" vertex="1">
          <mxGeometry x="1450" y="470" width="40" height="40" as="geometry" />
        </mxCell>
        <mxCell id="vtVKMghq7bhRAIps2ces-393" value="d34" style="rounded=0;whiteSpace=wrap;html=1;container=0;" parent="1" vertex="1">
          <mxGeometry x="1490" y="470" width="40" height="40" as="geometry" />
        </mxCell>
        <mxCell id="vtVKMghq7bhRAIps2ces-394" value="d35" style="rounded=0;whiteSpace=wrap;html=1;container=0;" parent="1" vertex="1">
          <mxGeometry x="1530" y="470" width="40" height="40" as="geometry" />
        </mxCell>
        <mxCell id="vtVKMghq7bhRAIps2ces-395" value="d36" style="rounded=0;whiteSpace=wrap;html=1;container=0;fillColor=#dae8fc;strokeColor=#6c8ebf;" parent="1" vertex="1">
          <mxGeometry x="1210" y="510" width="40" height="40" as="geometry" />
        </mxCell>
        <mxCell id="vtVKMghq7bhRAIps2ces-396" value="d37" style="rounded=0;whiteSpace=wrap;html=1;container=0;fillColor=#dae8fc;strokeColor=#6c8ebf;" parent="1" vertex="1">
          <mxGeometry x="1250" y="510" width="40" height="40" as="geometry" />
        </mxCell>
        <mxCell id="vtVKMghq7bhRAIps2ces-397" value="d38" style="rounded=0;whiteSpace=wrap;html=1;container=0;fillColor=#dae8fc;strokeColor=#6c8ebf;" parent="1" vertex="1">
          <mxGeometry x="1290" y="510" width="40" height="40" as="geometry" />
        </mxCell>
        <mxCell id="vtVKMghq7bhRAIps2ces-398" value="d39" style="rounded=0;whiteSpace=wrap;html=1;container=0;fillColor=#dae8fc;strokeColor=#6c8ebf;" parent="1" vertex="1">
          <mxGeometry x="1330" y="510" width="40" height="40" as="geometry" />
        </mxCell>
        <mxCell id="vtVKMghq7bhRAIps2ces-399" value="d40" style="rounded=0;whiteSpace=wrap;html=1;container=0;fillColor=#dae8fc;strokeColor=#6c8ebf;" parent="1" vertex="1">
          <mxGeometry x="1370" y="510" width="40" height="40" as="geometry" />
        </mxCell>
        <mxCell id="vtVKMghq7bhRAIps2ces-400" value="d41" style="rounded=0;whiteSpace=wrap;html=1;container=0;fillColor=#dae8fc;strokeColor=#6c8ebf;" parent="1" vertex="1">
          <mxGeometry x="1410" y="510" width="40" height="40" as="geometry" />
        </mxCell>
        <mxCell id="vtVKMghq7bhRAIps2ces-401" value="d42" style="rounded=0;whiteSpace=wrap;html=1;container=0;fillColor=#dae8fc;strokeColor=#6c8ebf;" parent="1" vertex="1">
          <mxGeometry x="1450" y="510" width="40" height="40" as="geometry" />
        </mxCell>
        <mxCell id="vtVKMghq7bhRAIps2ces-402" value="d43" style="rounded=0;whiteSpace=wrap;html=1;container=0;fillColor=#dae8fc;strokeColor=#6c8ebf;" parent="1" vertex="1">
          <mxGeometry x="1490" y="510" width="40" height="40" as="geometry" />
        </mxCell>
        <mxCell id="vtVKMghq7bhRAIps2ces-403" value="d44" style="rounded=0;whiteSpace=wrap;html=1;container=0;fillColor=#dae8fc;strokeColor=#6c8ebf;" parent="1" vertex="1">
          <mxGeometry x="1530" y="510" width="40" height="40" as="geometry" />
        </mxCell>
        <mxCell id="vtVKMghq7bhRAIps2ces-404" value="d45" style="rounded=0;whiteSpace=wrap;html=1;container=0;" parent="1" vertex="1">
          <mxGeometry x="1210" y="550" width="40" height="40" as="geometry" />
        </mxCell>
        <mxCell id="vtVKMghq7bhRAIps2ces-405" value="d46" style="rounded=0;whiteSpace=wrap;html=1;container=0;" parent="1" vertex="1">
          <mxGeometry x="1250" y="550" width="40" height="40" as="geometry" />
        </mxCell>
        <mxCell id="vtVKMghq7bhRAIps2ces-406" value="d47" style="rounded=0;whiteSpace=wrap;html=1;container=0;" parent="1" vertex="1">
          <mxGeometry x="1290" y="550" width="40" height="40" as="geometry" />
        </mxCell>
        <mxCell id="vtVKMghq7bhRAIps2ces-407" value="d48" style="rounded=0;whiteSpace=wrap;html=1;container=0;" parent="1" vertex="1">
          <mxGeometry x="1330" y="550" width="40" height="40" as="geometry" />
        </mxCell>
        <mxCell id="vtVKMghq7bhRAIps2ces-408" value="d49" style="rounded=0;whiteSpace=wrap;html=1;container=0;fillColor=#dae8fc;strokeColor=#6c8ebf;" parent="1" vertex="1">
          <mxGeometry x="1370" y="550" width="40" height="40" as="geometry" />
        </mxCell>
        <mxCell id="vtVKMghq7bhRAIps2ces-409" value="d50" style="rounded=0;whiteSpace=wrap;html=1;container=0;" parent="1" vertex="1">
          <mxGeometry x="1410" y="550" width="40" height="40" as="geometry" />
        </mxCell>
        <mxCell id="vtVKMghq7bhRAIps2ces-410" value="d51" style="rounded=0;whiteSpace=wrap;html=1;container=0;" parent="1" vertex="1">
          <mxGeometry x="1450" y="550" width="40" height="40" as="geometry" />
        </mxCell>
        <mxCell id="vtVKMghq7bhRAIps2ces-411" value="d52" style="rounded=0;whiteSpace=wrap;html=1;container=0;" parent="1" vertex="1">
          <mxGeometry x="1490" y="550" width="40" height="40" as="geometry" />
        </mxCell>
        <mxCell id="vtVKMghq7bhRAIps2ces-412" value="d53" style="rounded=0;whiteSpace=wrap;html=1;container=0;" parent="1" vertex="1">
          <mxGeometry x="1530" y="550" width="40" height="40" as="geometry" />
        </mxCell>
        <mxCell id="vtVKMghq7bhRAIps2ces-413" value="d54" style="rounded=0;whiteSpace=wrap;html=1;container=0;" parent="1" vertex="1">
          <mxGeometry x="1210" y="590" width="40" height="40" as="geometry" />
        </mxCell>
        <mxCell id="vtVKMghq7bhRAIps2ces-414" value="d55" style="rounded=0;whiteSpace=wrap;html=1;container=0;" parent="1" vertex="1">
          <mxGeometry x="1250" y="590" width="40" height="40" as="geometry" />
        </mxCell>
        <mxCell id="vtVKMghq7bhRAIps2ces-415" value="d56" style="rounded=0;whiteSpace=wrap;html=1;container=0;" parent="1" vertex="1">
          <mxGeometry x="1290" y="590" width="40" height="40" as="geometry" />
        </mxCell>
        <mxCell id="vtVKMghq7bhRAIps2ces-416" value="d57" style="rounded=0;whiteSpace=wrap;html=1;container=0;" parent="1" vertex="1">
          <mxGeometry x="1330" y="590" width="40" height="40" as="geometry" />
        </mxCell>
        <mxCell id="vtVKMghq7bhRAIps2ces-417" value="d58" style="rounded=0;whiteSpace=wrap;html=1;container=0;fillColor=#dae8fc;strokeColor=#6c8ebf;" parent="1" vertex="1">
          <mxGeometry x="1370" y="590" width="40" height="40" as="geometry" />
        </mxCell>
        <mxCell id="vtVKMghq7bhRAIps2ces-418" value="d59" style="rounded=0;whiteSpace=wrap;html=1;container=0;" parent="1" vertex="1">
          <mxGeometry x="1410" y="590" width="40" height="40" as="geometry" />
        </mxCell>
        <mxCell id="vtVKMghq7bhRAIps2ces-419" value="d60" style="rounded=0;whiteSpace=wrap;html=1;container=0;" parent="1" vertex="1">
          <mxGeometry x="1450" y="590" width="40" height="40" as="geometry" />
        </mxCell>
        <mxCell id="vtVKMghq7bhRAIps2ces-420" value="d61" style="rounded=0;whiteSpace=wrap;html=1;container=0;" parent="1" vertex="1">
          <mxGeometry x="1490" y="590" width="40" height="40" as="geometry" />
        </mxCell>
        <mxCell id="vtVKMghq7bhRAIps2ces-421" value="d62" style="rounded=0;whiteSpace=wrap;html=1;container=0;" parent="1" vertex="1">
          <mxGeometry x="1530" y="590" width="40" height="40" as="geometry" />
        </mxCell>
        <mxCell id="vtVKMghq7bhRAIps2ces-422" value="d63" style="rounded=0;whiteSpace=wrap;html=1;container=0;" parent="1" vertex="1">
          <mxGeometry x="1210" y="630" width="40" height="40" as="geometry" />
        </mxCell>
        <mxCell id="vtVKMghq7bhRAIps2ces-423" value="d64" style="rounded=0;whiteSpace=wrap;html=1;container=0;" parent="1" vertex="1">
          <mxGeometry x="1250" y="630" width="40" height="40" as="geometry" />
        </mxCell>
        <mxCell id="vtVKMghq7bhRAIps2ces-424" value="d65" style="rounded=0;whiteSpace=wrap;html=1;container=0;" parent="1" vertex="1">
          <mxGeometry x="1290" y="630" width="40" height="40" as="geometry" />
        </mxCell>
        <mxCell id="vtVKMghq7bhRAIps2ces-425" value="d66" style="rounded=0;whiteSpace=wrap;html=1;container=0;" parent="1" vertex="1">
          <mxGeometry x="1330" y="630" width="40" height="40" as="geometry" />
        </mxCell>
        <mxCell id="vtVKMghq7bhRAIps2ces-426" value="d67" style="rounded=0;whiteSpace=wrap;html=1;container=0;fillColor=#dae8fc;strokeColor=#6c8ebf;" parent="1" vertex="1">
          <mxGeometry x="1370" y="630" width="40" height="40" as="geometry" />
        </mxCell>
        <mxCell id="vtVKMghq7bhRAIps2ces-427" value="d68" style="rounded=0;whiteSpace=wrap;html=1;container=0;" parent="1" vertex="1">
          <mxGeometry x="1410" y="630" width="40" height="40" as="geometry" />
        </mxCell>
        <mxCell id="vtVKMghq7bhRAIps2ces-428" value="d69" style="rounded=0;whiteSpace=wrap;html=1;container=0;" parent="1" vertex="1">
          <mxGeometry x="1450" y="630" width="40" height="40" as="geometry" />
        </mxCell>
        <mxCell id="vtVKMghq7bhRAIps2ces-429" value="d70" style="rounded=0;whiteSpace=wrap;html=1;container=0;" parent="1" vertex="1">
          <mxGeometry x="1490" y="630" width="40" height="40" as="geometry" />
        </mxCell>
        <mxCell id="vtVKMghq7bhRAIps2ces-430" value="d71" style="rounded=0;whiteSpace=wrap;html=1;container=0;" parent="1" vertex="1">
          <mxGeometry x="1530" y="630" width="40" height="40" as="geometry" />
        </mxCell>
        <mxCell id="vtVKMghq7bhRAIps2ces-431" value="d72" style="rounded=0;whiteSpace=wrap;html=1;container=0;" parent="1" vertex="1">
          <mxGeometry x="1210" y="670" width="40" height="40" as="geometry" />
        </mxCell>
        <mxCell id="vtVKMghq7bhRAIps2ces-432" value="d73" style="rounded=0;whiteSpace=wrap;html=1;container=0;" parent="1" vertex="1">
          <mxGeometry x="1250" y="670" width="40" height="40" as="geometry" />
        </mxCell>
        <mxCell id="vtVKMghq7bhRAIps2ces-433" value="d74" style="rounded=0;whiteSpace=wrap;html=1;container=0;" parent="1" vertex="1">
          <mxGeometry x="1290" y="670" width="40" height="40" as="geometry" />
        </mxCell>
        <mxCell id="vtVKMghq7bhRAIps2ces-434" value="d75" style="rounded=0;whiteSpace=wrap;html=1;container=0;" parent="1" vertex="1">
          <mxGeometry x="1330" y="670" width="40" height="40" as="geometry" />
        </mxCell>
        <mxCell id="vtVKMghq7bhRAIps2ces-435" value="d76" style="rounded=0;whiteSpace=wrap;html=1;container=0;fillColor=#dae8fc;strokeColor=#6c8ebf;" parent="1" vertex="1">
          <mxGeometry x="1370" y="670" width="40" height="40" as="geometry" />
        </mxCell>
        <mxCell id="vtVKMghq7bhRAIps2ces-436" value="d77" style="rounded=0;whiteSpace=wrap;html=1;container=0;" parent="1" vertex="1">
          <mxGeometry x="1410" y="670" width="40" height="40" as="geometry" />
        </mxCell>
        <mxCell id="vtVKMghq7bhRAIps2ces-437" value="d78" style="rounded=0;whiteSpace=wrap;html=1;container=0;" parent="1" vertex="1">
          <mxGeometry x="1450" y="670" width="40" height="40" as="geometry" />
        </mxCell>
        <mxCell id="vtVKMghq7bhRAIps2ces-438" value="d79" style="rounded=0;whiteSpace=wrap;html=1;container=0;" parent="1" vertex="1">
          <mxGeometry x="1490" y="670" width="40" height="40" as="geometry" />
        </mxCell>
        <mxCell id="vtVKMghq7bhRAIps2ces-439" value="d80" style="rounded=0;whiteSpace=wrap;html=1;container=0;" parent="1" vertex="1">
          <mxGeometry x="1530" y="670" width="40" height="40" as="geometry" />
        </mxCell>
        <mxCell id="x3buNSiYmWfB9H5l7acn-1" value="" style="shape=flexArrow;endArrow=classic;html=1;rounded=0;" parent="1" edge="1">
          <mxGeometry width="50" height="50" relative="1" as="geometry">
            <mxPoint x="1630" y="510" as="sourcePoint" />
            <mxPoint x="1750" y="510" as="targetPoint" />
          </mxGeometry>
        </mxCell>
        <mxCell id="x3buNSiYmWfB9H5l7acn-2" value="d0" style="rounded=0;whiteSpace=wrap;html=1;container=0;fillColor=#ffe6cc;strokeColor=#d79b00;" parent="1" vertex="1">
          <mxGeometry x="1790" y="360" width="40" height="40" as="geometry" />
        </mxCell>
        <mxCell id="x3buNSiYmWfB9H5l7acn-3" value="d1" style="rounded=0;whiteSpace=wrap;html=1;container=0;fillColor=#ffe6cc;strokeColor=#d79b00;" parent="1" vertex="1">
          <mxGeometry x="1830" y="360" width="40" height="40" as="geometry" />
        </mxCell>
        <mxCell id="x3buNSiYmWfB9H5l7acn-4" value="d2" style="rounded=0;whiteSpace=wrap;html=1;container=0;fillColor=#ffe6cc;strokeColor=#d79b00;" parent="1" vertex="1">
          <mxGeometry x="1870" y="360" width="40" height="40" as="geometry" />
        </mxCell>
        <mxCell id="x3buNSiYmWfB9H5l7acn-5" value="d3" style="rounded=0;whiteSpace=wrap;html=1;container=0;fillColor=#ffe6cc;strokeColor=#d79b00;" parent="1" vertex="1">
          <mxGeometry x="1910" y="360" width="40" height="40" as="geometry" />
        </mxCell>
        <mxCell id="x3buNSiYmWfB9H5l7acn-6" value="d4" style="rounded=0;whiteSpace=wrap;html=1;container=0;fillColor=#ffe6cc;strokeColor=#d79b00;" parent="1" vertex="1">
          <mxGeometry x="1950" y="360" width="40" height="40" as="geometry" />
        </mxCell>
        <mxCell id="x3buNSiYmWfB9H5l7acn-7" value="d5" style="rounded=0;whiteSpace=wrap;html=1;container=0;fillColor=#f8cecc;strokeColor=#b85450;" parent="1" vertex="1">
          <mxGeometry x="1990" y="360" width="40" height="40" as="geometry" />
        </mxCell>
        <mxCell id="x3buNSiYmWfB9H5l7acn-8" value="d6" style="rounded=0;whiteSpace=wrap;html=1;container=0;fillColor=#dae8fc;strokeColor=#6c8ebf;" parent="1" vertex="1">
          <mxGeometry x="2030" y="360" width="40" height="40" as="geometry" />
        </mxCell>
        <mxCell id="x3buNSiYmWfB9H5l7acn-9" value="d7" style="rounded=0;whiteSpace=wrap;html=1;container=0;fillColor=#dae8fc;strokeColor=#6c8ebf;" parent="1" vertex="1">
          <mxGeometry x="2070" y="360" width="40" height="40" as="geometry" />
        </mxCell>
        <mxCell id="x3buNSiYmWfB9H5l7acn-10" value="d8" style="rounded=0;whiteSpace=wrap;html=1;container=0;fillColor=#dae8fc;strokeColor=#6c8ebf;" parent="1" vertex="1">
          <mxGeometry x="2110" y="360" width="40" height="40" as="geometry" />
        </mxCell>
        <mxCell id="x3buNSiYmWfB9H5l7acn-11" value="d9" style="rounded=0;whiteSpace=wrap;html=1;container=0;fillColor=#ffe6cc;strokeColor=#d79b00;" parent="1" vertex="1">
          <mxGeometry x="1790" y="400" width="40" height="40" as="geometry" />
        </mxCell>
        <mxCell id="x3buNSiYmWfB9H5l7acn-12" value="d10" style="rounded=0;whiteSpace=wrap;html=1;container=0;fillColor=#ffe6cc;strokeColor=#d79b00;" parent="1" vertex="1">
          <mxGeometry x="1830" y="400" width="40" height="40" as="geometry" />
        </mxCell>
        <mxCell id="x3buNSiYmWfB9H5l7acn-13" value="d11" style="rounded=0;whiteSpace=wrap;html=1;container=0;fillColor=#ffe6cc;strokeColor=#d79b00;" parent="1" vertex="1">
          <mxGeometry x="1870" y="400" width="40" height="40" as="geometry" />
        </mxCell>
        <mxCell id="x3buNSiYmWfB9H5l7acn-14" value="d12" style="rounded=0;whiteSpace=wrap;html=1;container=0;fillColor=#ffe6cc;strokeColor=#d79b00;" parent="1" vertex="1">
          <mxGeometry x="1910" y="400" width="40" height="40" as="geometry" />
        </mxCell>
        <mxCell id="x3buNSiYmWfB9H5l7acn-15" value="d13" style="rounded=0;whiteSpace=wrap;html=1;container=0;direction=south;fillColor=#e1d5e7;strokeColor=#9673a6;" parent="1" vertex="1">
          <mxGeometry x="1950" y="400" width="40" height="40" as="geometry" />
        </mxCell>
        <mxCell id="x3buNSiYmWfB9H5l7acn-16" value="d14" style="rounded=0;whiteSpace=wrap;html=1;container=0;fillColor=#dae8fc;strokeColor=#6c8ebf;" parent="1" vertex="1">
          <mxGeometry x="1990" y="400" width="40" height="40" as="geometry" />
        </mxCell>
        <mxCell id="x3buNSiYmWfB9H5l7acn-17" value="d15" style="rounded=0;whiteSpace=wrap;html=1;container=0;fillColor=#dae8fc;strokeColor=#6c8ebf;" parent="1" vertex="1">
          <mxGeometry x="2030" y="400" width="40" height="40" as="geometry" />
        </mxCell>
        <mxCell id="x3buNSiYmWfB9H5l7acn-18" value="d16" style="rounded=0;whiteSpace=wrap;html=1;container=0;fillColor=#dae8fc;strokeColor=#6c8ebf;" parent="1" vertex="1">
          <mxGeometry x="2070" y="400" width="40" height="40" as="geometry" />
        </mxCell>
        <mxCell id="x3buNSiYmWfB9H5l7acn-19" value="d17" style="rounded=0;whiteSpace=wrap;html=1;container=0;fillColor=#dae8fc;strokeColor=#6c8ebf;" parent="1" vertex="1">
          <mxGeometry x="2110" y="400" width="40" height="40" as="geometry" />
        </mxCell>
        <mxCell id="x3buNSiYmWfB9H5l7acn-20" value="d18" style="rounded=0;whiteSpace=wrap;html=1;container=0;fillColor=#ffe6cc;strokeColor=#d79b00;" parent="1" vertex="1">
          <mxGeometry x="1790" y="440" width="40" height="40" as="geometry" />
        </mxCell>
        <mxCell id="x3buNSiYmWfB9H5l7acn-21" value="d19" style="rounded=0;whiteSpace=wrap;html=1;container=0;fillColor=#ffe6cc;strokeColor=#d79b00;" parent="1" vertex="1">
          <mxGeometry x="1830" y="440" width="40" height="40" as="geometry" />
        </mxCell>
        <mxCell id="x3buNSiYmWfB9H5l7acn-22" value="d20" style="rounded=0;whiteSpace=wrap;html=1;container=0;fillColor=#dae8fc;strokeColor=#6c8ebf;" parent="1" vertex="1">
          <mxGeometry x="1870" y="440" width="40" height="40" as="geometry" />
        </mxCell>
        <mxCell id="x3buNSiYmWfB9H5l7acn-23" value="d21" style="rounded=0;whiteSpace=wrap;html=1;container=0;fillColor=#dae8fc;strokeColor=#6c8ebf;" parent="1" vertex="1">
          <mxGeometry x="1910" y="440" width="40" height="40" as="geometry" />
        </mxCell>
        <mxCell id="x3buNSiYmWfB9H5l7acn-24" value="d22" style="rounded=0;whiteSpace=wrap;html=1;container=0;fillColor=#dae8fc;strokeColor=#6c8ebf;" parent="1" vertex="1">
          <mxGeometry x="1950" y="440" width="40" height="40" as="geometry" />
        </mxCell>
        <mxCell id="x3buNSiYmWfB9H5l7acn-25" value="d23" style="rounded=0;whiteSpace=wrap;html=1;container=0;fillColor=#dae8fc;strokeColor=#6c8ebf;" parent="1" vertex="1">
          <mxGeometry x="1990" y="440" width="40" height="40" as="geometry" />
        </mxCell>
        <mxCell id="x3buNSiYmWfB9H5l7acn-26" value="d24" style="rounded=0;whiteSpace=wrap;html=1;container=0;fillColor=#dae8fc;strokeColor=#6c8ebf;" parent="1" vertex="1">
          <mxGeometry x="2030" y="440" width="40" height="40" as="geometry" />
        </mxCell>
        <mxCell id="x3buNSiYmWfB9H5l7acn-27" value="d25" style="rounded=0;whiteSpace=wrap;html=1;container=0;fillColor=#dae8fc;strokeColor=#6c8ebf;" parent="1" vertex="1">
          <mxGeometry x="2070" y="440" width="40" height="40" as="geometry" />
        </mxCell>
        <mxCell id="x3buNSiYmWfB9H5l7acn-28" value="d26" style="rounded=0;whiteSpace=wrap;html=1;container=0;fillColor=#dae8fc;strokeColor=#6c8ebf;" parent="1" vertex="1">
          <mxGeometry x="2110" y="440" width="40" height="40" as="geometry" />
        </mxCell>
        <mxCell id="x3buNSiYmWfB9H5l7acn-29" value="d27" style="rounded=0;whiteSpace=wrap;html=1;container=0;fillColor=#ffe6cc;strokeColor=#d79b00;" parent="1" vertex="1">
          <mxGeometry x="1790" y="480" width="40" height="40" as="geometry" />
        </mxCell>
        <mxCell id="x3buNSiYmWfB9H5l7acn-30" value="d28" style="rounded=0;whiteSpace=wrap;html=1;container=0;fillColor=#ffe6cc;strokeColor=#d79b00;" parent="1" vertex="1">
          <mxGeometry x="1830" y="480" width="40" height="40" as="geometry" />
        </mxCell>
        <mxCell id="x3buNSiYmWfB9H5l7acn-31" value="d29" style="rounded=0;whiteSpace=wrap;html=1;container=0;fillColor=#dae8fc;strokeColor=#6c8ebf;" parent="1" vertex="1">
          <mxGeometry x="1870" y="480" width="40" height="40" as="geometry" />
        </mxCell>
        <mxCell id="x3buNSiYmWfB9H5l7acn-32" value="d30" style="rounded=0;whiteSpace=wrap;html=1;container=0;fillColor=#dae8fc;strokeColor=#6c8ebf;" parent="1" vertex="1">
          <mxGeometry x="1910" y="480" width="40" height="40" as="geometry" />
        </mxCell>
        <mxCell id="x3buNSiYmWfB9H5l7acn-33" value="d31" style="rounded=0;whiteSpace=wrap;html=1;container=0;fillColor=#dae8fc;strokeColor=#6c8ebf;" parent="1" vertex="1">
          <mxGeometry x="1950" y="480" width="40" height="40" as="geometry" />
        </mxCell>
        <mxCell id="x3buNSiYmWfB9H5l7acn-34" value="d32" style="rounded=0;whiteSpace=wrap;html=1;container=0;fillColor=#dae8fc;strokeColor=#6c8ebf;" parent="1" vertex="1">
          <mxGeometry x="1990" y="480" width="40" height="40" as="geometry" />
        </mxCell>
        <mxCell id="x3buNSiYmWfB9H5l7acn-35" value="d33" style="rounded=0;whiteSpace=wrap;html=1;container=0;fillColor=#dae8fc;strokeColor=#6c8ebf;" parent="1" vertex="1">
          <mxGeometry x="2030" y="480" width="40" height="40" as="geometry" />
        </mxCell>
        <mxCell id="x3buNSiYmWfB9H5l7acn-36" value="d34" style="rounded=0;whiteSpace=wrap;html=1;container=0;fillColor=#dae8fc;strokeColor=#6c8ebf;" parent="1" vertex="1">
          <mxGeometry x="2070" y="480" width="40" height="40" as="geometry" />
        </mxCell>
        <mxCell id="x3buNSiYmWfB9H5l7acn-37" value="d35" style="rounded=0;whiteSpace=wrap;html=1;container=0;fillColor=#dae8fc;strokeColor=#6c8ebf;" parent="1" vertex="1">
          <mxGeometry x="2110" y="480" width="40" height="40" as="geometry" />
        </mxCell>
        <mxCell id="x3buNSiYmWfB9H5l7acn-38" value="d36" style="rounded=0;whiteSpace=wrap;html=1;container=0;fillColor=#ffe6cc;strokeColor=#d79b00;" parent="1" vertex="1">
          <mxGeometry x="1790" y="520" width="40" height="40" as="geometry" />
        </mxCell>
        <mxCell id="x3buNSiYmWfB9H5l7acn-39" value="d37" style="rounded=0;whiteSpace=wrap;html=1;container=0;fillColor=#dae8fc;strokeColor=#6c8ebf;" parent="1" vertex="1">
          <mxGeometry x="1830" y="520" width="40" height="40" as="geometry" />
        </mxCell>
        <mxCell id="x3buNSiYmWfB9H5l7acn-40" value="d38" style="rounded=0;whiteSpace=wrap;html=1;container=0;fillColor=#dae8fc;strokeColor=#6c8ebf;" parent="1" vertex="1">
          <mxGeometry x="1870" y="520" width="40" height="40" as="geometry" />
        </mxCell>
        <mxCell id="x3buNSiYmWfB9H5l7acn-41" value="d39" style="rounded=0;whiteSpace=wrap;html=1;container=0;fillColor=#dae8fc;strokeColor=#6c8ebf;" parent="1" vertex="1">
          <mxGeometry x="1910" y="520" width="40" height="40" as="geometry" />
        </mxCell>
        <mxCell id="x3buNSiYmWfB9H5l7acn-42" value="d40" style="rounded=0;whiteSpace=wrap;html=1;container=0;fillColor=#dae8fc;strokeColor=#6c8ebf;" parent="1" vertex="1">
          <mxGeometry x="1950" y="520" width="40" height="40" as="geometry" />
        </mxCell>
        <mxCell id="x3buNSiYmWfB9H5l7acn-43" value="d41" style="rounded=0;whiteSpace=wrap;html=1;container=0;fillColor=#dae8fc;strokeColor=#6c8ebf;" parent="1" vertex="1">
          <mxGeometry x="1990" y="520" width="40" height="40" as="geometry" />
        </mxCell>
        <mxCell id="x3buNSiYmWfB9H5l7acn-44" value="d42" style="rounded=0;whiteSpace=wrap;html=1;container=0;fillColor=#dae8fc;strokeColor=#6c8ebf;" parent="1" vertex="1">
          <mxGeometry x="2030" y="520" width="40" height="40" as="geometry" />
        </mxCell>
        <mxCell id="x3buNSiYmWfB9H5l7acn-45" value="d43" style="rounded=0;whiteSpace=wrap;html=1;container=0;fillColor=#dae8fc;strokeColor=#6c8ebf;" parent="1" vertex="1">
          <mxGeometry x="2070" y="520" width="40" height="40" as="geometry" />
        </mxCell>
        <mxCell id="x3buNSiYmWfB9H5l7acn-46" value="d44" style="rounded=0;whiteSpace=wrap;html=1;container=0;fillColor=#ffe6cc;strokeColor=#d79b00;" parent="1" vertex="1">
          <mxGeometry x="2110" y="520" width="40" height="40" as="geometry" />
        </mxCell>
        <mxCell id="x3buNSiYmWfB9H5l7acn-47" value="d45" style="rounded=0;whiteSpace=wrap;html=1;container=0;fillColor=#dae8fc;strokeColor=#6c8ebf;" parent="1" vertex="1">
          <mxGeometry x="1790" y="560" width="40" height="40" as="geometry" />
        </mxCell>
        <mxCell id="x3buNSiYmWfB9H5l7acn-48" value="d46" style="rounded=0;whiteSpace=wrap;html=1;container=0;fillColor=#dae8fc;strokeColor=#6c8ebf;" parent="1" vertex="1">
          <mxGeometry x="1830" y="560" width="40" height="40" as="geometry" />
        </mxCell>
        <mxCell id="x3buNSiYmWfB9H5l7acn-49" value="d47" style="rounded=0;whiteSpace=wrap;html=1;container=0;fillColor=#dae8fc;strokeColor=#6c8ebf;" parent="1" vertex="1">
          <mxGeometry x="1870" y="560" width="40" height="40" as="geometry" />
        </mxCell>
        <mxCell id="x3buNSiYmWfB9H5l7acn-50" value="d48" style="rounded=0;whiteSpace=wrap;html=1;container=0;fillColor=#dae8fc;strokeColor=#6c8ebf;" parent="1" vertex="1">
          <mxGeometry x="1910" y="560" width="40" height="40" as="geometry" />
        </mxCell>
        <mxCell id="x3buNSiYmWfB9H5l7acn-51" value="d49" style="rounded=0;whiteSpace=wrap;html=1;container=0;fillColor=#dae8fc;strokeColor=#6c8ebf;" parent="1" vertex="1">
          <mxGeometry x="1950" y="560" width="40" height="40" as="geometry" />
        </mxCell>
        <mxCell id="x3buNSiYmWfB9H5l7acn-52" value="d50" style="rounded=0;whiteSpace=wrap;html=1;container=0;fillColor=#dae8fc;strokeColor=#6c8ebf;" parent="1" vertex="1">
          <mxGeometry x="1990" y="560" width="40" height="40" as="geometry" />
        </mxCell>
        <mxCell id="x3buNSiYmWfB9H5l7acn-53" value="d51" style="rounded=0;whiteSpace=wrap;html=1;container=0;fillColor=#dae8fc;strokeColor=#6c8ebf;" parent="1" vertex="1">
          <mxGeometry x="2030" y="560" width="40" height="40" as="geometry" />
        </mxCell>
        <mxCell id="x3buNSiYmWfB9H5l7acn-54" value="d52" style="rounded=0;whiteSpace=wrap;html=1;container=0;fillColor=#ffe6cc;strokeColor=#d79b00;" parent="1" vertex="1">
          <mxGeometry x="2070" y="560" width="40" height="40" as="geometry" />
        </mxCell>
        <mxCell id="x3buNSiYmWfB9H5l7acn-55" value="d53" style="rounded=0;whiteSpace=wrap;html=1;container=0;fillColor=#ffe6cc;strokeColor=#d79b00;" parent="1" vertex="1">
          <mxGeometry x="2110" y="560" width="40" height="40" as="geometry" />
        </mxCell>
        <mxCell id="x3buNSiYmWfB9H5l7acn-56" value="d54" style="rounded=0;whiteSpace=wrap;html=1;container=0;fillColor=#dae8fc;strokeColor=#6c8ebf;" parent="1" vertex="1">
          <mxGeometry x="1790" y="600" width="40" height="40" as="geometry" />
        </mxCell>
        <mxCell id="x3buNSiYmWfB9H5l7acn-57" value="d55" style="rounded=0;whiteSpace=wrap;html=1;container=0;fillColor=#dae8fc;strokeColor=#6c8ebf;" parent="1" vertex="1">
          <mxGeometry x="1830" y="600" width="40" height="40" as="geometry" />
        </mxCell>
        <mxCell id="x3buNSiYmWfB9H5l7acn-58" value="d56" style="rounded=0;whiteSpace=wrap;html=1;container=0;fillColor=#dae8fc;strokeColor=#6c8ebf;" parent="1" vertex="1">
          <mxGeometry x="1870" y="600" width="40" height="40" as="geometry" />
        </mxCell>
        <mxCell id="x3buNSiYmWfB9H5l7acn-59" value="d57" style="rounded=0;whiteSpace=wrap;html=1;container=0;" parent="1" vertex="1">
          <mxGeometry x="1910" y="600" width="40" height="40" as="geometry" />
        </mxCell>
        <mxCell id="x3buNSiYmWfB9H5l7acn-60" value="d58" style="rounded=0;whiteSpace=wrap;html=1;container=0;fillColor=#dae8fc;strokeColor=#6c8ebf;" parent="1" vertex="1">
          <mxGeometry x="1950" y="600" width="40" height="40" as="geometry" />
        </mxCell>
        <mxCell id="x3buNSiYmWfB9H5l7acn-61" value="d59" style="rounded=0;whiteSpace=wrap;html=1;container=0;fillColor=#dae8fc;strokeColor=#6c8ebf;" parent="1" vertex="1">
          <mxGeometry x="1990" y="600" width="40" height="40" as="geometry" />
        </mxCell>
        <mxCell id="x3buNSiYmWfB9H5l7acn-62" value="d60" style="rounded=0;whiteSpace=wrap;html=1;container=0;fillColor=#ffe6cc;strokeColor=#d79b00;" parent="1" vertex="1">
          <mxGeometry x="2030" y="600" width="40" height="40" as="geometry" />
        </mxCell>
        <mxCell id="x3buNSiYmWfB9H5l7acn-63" value="d61" style="rounded=0;whiteSpace=wrap;html=1;container=0;fillColor=#ffe6cc;strokeColor=#d79b00;" parent="1" vertex="1">
          <mxGeometry x="2070" y="600" width="40" height="40" as="geometry" />
        </mxCell>
        <mxCell id="x3buNSiYmWfB9H5l7acn-64" value="d62" style="rounded=0;whiteSpace=wrap;html=1;container=0;fillColor=#ffe6cc;strokeColor=#d79b00;" parent="1" vertex="1">
          <mxGeometry x="2110" y="600" width="40" height="40" as="geometry" />
        </mxCell>
        <mxCell id="x3buNSiYmWfB9H5l7acn-65" value="d63" style="rounded=0;whiteSpace=wrap;html=1;container=0;fillColor=#dae8fc;strokeColor=#6c8ebf;" parent="1" vertex="1">
          <mxGeometry x="1790" y="640" width="40" height="40" as="geometry" />
        </mxCell>
        <mxCell id="x3buNSiYmWfB9H5l7acn-66" value="d64" style="rounded=0;whiteSpace=wrap;html=1;container=0;fillColor=#dae8fc;strokeColor=#6c8ebf;" parent="1" vertex="1">
          <mxGeometry x="1830" y="640" width="40" height="40" as="geometry" />
        </mxCell>
        <mxCell id="x3buNSiYmWfB9H5l7acn-67" value="d65" style="rounded=0;whiteSpace=wrap;html=1;container=0;fillColor=#dae8fc;strokeColor=#6c8ebf;" parent="1" vertex="1">
          <mxGeometry x="1870" y="640" width="40" height="40" as="geometry" />
        </mxCell>
        <mxCell id="x3buNSiYmWfB9H5l7acn-68" value="d66" style="rounded=0;whiteSpace=wrap;html=1;container=0;fillColor=#dae8fc;strokeColor=#6c8ebf;" parent="1" vertex="1">
          <mxGeometry x="1910" y="640" width="40" height="40" as="geometry" />
        </mxCell>
        <mxCell id="x3buNSiYmWfB9H5l7acn-69" value="d67" style="rounded=0;whiteSpace=wrap;html=1;container=0;fillColor=#e1d5e7;strokeColor=#9673a6;" parent="1" vertex="1">
          <mxGeometry x="1950" y="640" width="40" height="40" as="geometry" />
        </mxCell>
        <mxCell id="x3buNSiYmWfB9H5l7acn-70" value="d68" style="rounded=0;whiteSpace=wrap;html=1;container=0;fillColor=#ffe6cc;strokeColor=#d79b00;" parent="1" vertex="1">
          <mxGeometry x="1990" y="640" width="40" height="40" as="geometry" />
        </mxCell>
        <mxCell id="x3buNSiYmWfB9H5l7acn-71" value="d69" style="rounded=0;whiteSpace=wrap;html=1;container=0;fillColor=#ffe6cc;strokeColor=#d79b00;" parent="1" vertex="1">
          <mxGeometry x="2030" y="640" width="40" height="40" as="geometry" />
        </mxCell>
        <mxCell id="x3buNSiYmWfB9H5l7acn-72" value="d70" style="rounded=0;whiteSpace=wrap;html=1;container=0;fillColor=#ffe6cc;strokeColor=#d79b00;" parent="1" vertex="1">
          <mxGeometry x="2070" y="640" width="40" height="40" as="geometry" />
        </mxCell>
        <mxCell id="x3buNSiYmWfB9H5l7acn-73" value="d71" style="rounded=0;whiteSpace=wrap;html=1;container=0;fillColor=#ffe6cc;strokeColor=#d79b00;" parent="1" vertex="1">
          <mxGeometry x="2110" y="640" width="40" height="40" as="geometry" />
        </mxCell>
        <mxCell id="x3buNSiYmWfB9H5l7acn-74" value="d72" style="rounded=0;whiteSpace=wrap;html=1;container=0;fillColor=#dae8fc;strokeColor=#6c8ebf;" parent="1" vertex="1">
          <mxGeometry x="1790" y="680" width="40" height="40" as="geometry" />
        </mxCell>
        <mxCell id="x3buNSiYmWfB9H5l7acn-75" value="d73" style="rounded=0;whiteSpace=wrap;html=1;container=0;fillColor=#dae8fc;strokeColor=#6c8ebf;" parent="1" vertex="1">
          <mxGeometry x="1830" y="680" width="40" height="40" as="geometry" />
        </mxCell>
        <mxCell id="x3buNSiYmWfB9H5l7acn-76" value="d74" style="rounded=0;whiteSpace=wrap;html=1;container=0;fillColor=#dae8fc;strokeColor=#6c8ebf;" parent="1" vertex="1">
          <mxGeometry x="1870" y="680" width="40" height="40" as="geometry" />
        </mxCell>
        <mxCell id="x3buNSiYmWfB9H5l7acn-77" value="d75" style="rounded=0;whiteSpace=wrap;html=1;container=0;fillColor=#f8cecc;strokeColor=#b85450;" parent="1" vertex="1">
          <mxGeometry x="1910" y="680" width="40" height="40" as="geometry" />
        </mxCell>
        <mxCell id="x3buNSiYmWfB9H5l7acn-78" value="d76" style="rounded=0;whiteSpace=wrap;html=1;container=0;fillColor=#ffe6cc;strokeColor=#d79b00;" parent="1" vertex="1">
          <mxGeometry x="1950" y="680" width="40" height="40" as="geometry" />
        </mxCell>
        <mxCell id="x3buNSiYmWfB9H5l7acn-79" value="d77" style="rounded=0;whiteSpace=wrap;html=1;container=0;fillColor=#ffe6cc;strokeColor=#d79b00;" parent="1" vertex="1">
          <mxGeometry x="1990" y="680" width="40" height="40" as="geometry" />
        </mxCell>
        <mxCell id="x3buNSiYmWfB9H5l7acn-80" value="d78" style="rounded=0;whiteSpace=wrap;html=1;container=0;fillColor=#ffe6cc;strokeColor=#d79b00;" parent="1" vertex="1">
          <mxGeometry x="2030" y="680" width="40" height="40" as="geometry" />
        </mxCell>
        <mxCell id="x3buNSiYmWfB9H5l7acn-81" value="d79" style="rounded=0;whiteSpace=wrap;html=1;container=0;fillColor=#ffe6cc;strokeColor=#d79b00;" parent="1" vertex="1">
          <mxGeometry x="2070" y="680" width="40" height="40" as="geometry" />
        </mxCell>
        <mxCell id="x3buNSiYmWfB9H5l7acn-82" value="d80" style="rounded=0;whiteSpace=wrap;html=1;container=0;fillColor=#ffe6cc;strokeColor=#d79b00;" parent="1" vertex="1">
          <mxGeometry x="2110" y="680" width="40" height="40" as="geometry" />
        </mxCell>
        <mxCell id="wSp8r432UNHAgWOweUfD-25" value="d57" style="rounded=0;whiteSpace=wrap;html=1;container=0;fillColor=#dae8fc;strokeColor=#6c8ebf;" parent="1" vertex="1">
          <mxGeometry x="1910" y="600" width="40" height="40" as="geometry" />
        </mxCell>
        <mxCell id="wSp8r432UNHAgWOweUfD-26" value="10" style="text;html=1;align=center;verticalAlign=middle;whiteSpace=wrap;rounded=0;" parent="1" vertex="1">
          <mxGeometry x="1780" y="320" width="60" height="30" as="geometry" />
        </mxCell>
        <mxCell id="wSp8r432UNHAgWOweUfD-27" value="11" style="text;html=1;align=center;verticalAlign=middle;whiteSpace=wrap;rounded=0;" parent="1" vertex="1">
          <mxGeometry x="1820" y="320" width="60" height="30" as="geometry" />
        </mxCell>
        <mxCell id="wSp8r432UNHAgWOweUfD-28" value="12" style="text;html=1;align=center;verticalAlign=middle;whiteSpace=wrap;rounded=0;" parent="1" vertex="1">
          <mxGeometry x="1860" y="320" width="60" height="30" as="geometry" />
        </mxCell>
        <mxCell id="wSp8r432UNHAgWOweUfD-29" value="13" style="text;html=1;align=center;verticalAlign=middle;whiteSpace=wrap;rounded=0;" parent="1" vertex="1">
          <mxGeometry x="1910" y="320" width="60" height="30" as="geometry" />
        </mxCell>
        <mxCell id="wSp8r432UNHAgWOweUfD-30" value="14" style="text;html=1;align=center;verticalAlign=middle;whiteSpace=wrap;rounded=0;" parent="1" vertex="1">
          <mxGeometry x="1940" y="320" width="60" height="30" as="geometry" />
        </mxCell>
        <mxCell id="wSp8r432UNHAgWOweUfD-31" value="15" style="text;html=1;align=center;verticalAlign=middle;whiteSpace=wrap;rounded=0;" parent="1" vertex="1">
          <mxGeometry x="1980" y="320" width="60" height="30" as="geometry" />
        </mxCell>
        <mxCell id="wSp8r432UNHAgWOweUfD-32" value="16" style="text;html=1;align=center;verticalAlign=middle;whiteSpace=wrap;rounded=0;" parent="1" vertex="1">
          <mxGeometry x="2020" y="320" width="60" height="30" as="geometry" />
        </mxCell>
        <mxCell id="wSp8r432UNHAgWOweUfD-33" value="17" style="text;html=1;align=center;verticalAlign=middle;whiteSpace=wrap;rounded=0;" parent="1" vertex="1">
          <mxGeometry x="2060" y="320" width="60" height="30" as="geometry" />
        </mxCell>
        <mxCell id="wSp8r432UNHAgWOweUfD-34" value="18" style="text;html=1;align=center;verticalAlign=middle;whiteSpace=wrap;rounded=0;" parent="1" vertex="1">
          <mxGeometry x="2100" y="320" width="60" height="30" as="geometry" />
        </mxCell>
        <mxCell id="wSp8r432UNHAgWOweUfD-45" value="d7" style="rounded=0;whiteSpace=wrap;html=1;container=0;fillColor=#dae8fc;strokeColor=#6c8ebf;" parent="1" vertex="1">
          <mxGeometry x="2070" y="360" width="40" height="40" as="geometry" />
        </mxCell>
        <mxCell id="wSp8r432UNHAgWOweUfD-46" value="d6" style="rounded=0;whiteSpace=wrap;html=1;container=0;fillColor=#dae8fc;strokeColor=#6c8ebf;" parent="1" vertex="1">
          <mxGeometry x="2030" y="360" width="40" height="40" as="geometry" />
        </mxCell>
        <mxCell id="wSp8r432UNHAgWOweUfD-47" value="d8" style="rounded=0;whiteSpace=wrap;html=1;container=0;fillColor=#dae8fc;strokeColor=#6c8ebf;" parent="1" vertex="1">
          <mxGeometry x="2110" y="360" width="40" height="40" as="geometry" />
        </mxCell>
        <mxCell id="wSp8r432UNHAgWOweUfD-48" value="d17" style="rounded=0;whiteSpace=wrap;html=1;container=0;fillColor=#dae8fc;strokeColor=#6c8ebf;" parent="1" vertex="1">
          <mxGeometry x="2110" y="400" width="40" height="40" as="geometry" />
        </mxCell>
        <mxCell id="wSp8r432UNHAgWOweUfD-49" value="d14" style="rounded=0;whiteSpace=wrap;html=1;container=0;fillColor=#dae8fc;strokeColor=#6c8ebf;" parent="1" vertex="1">
          <mxGeometry x="1990" y="400" width="40" height="40" as="geometry" />
        </mxCell>
        <mxCell id="wSp8r432UNHAgWOweUfD-50" value="d15" style="rounded=0;whiteSpace=wrap;html=1;container=0;fillColor=#dae8fc;strokeColor=#6c8ebf;" parent="1" vertex="1">
          <mxGeometry x="2030" y="400" width="40" height="40" as="geometry" />
        </mxCell>
        <mxCell id="wSp8r432UNHAgWOweUfD-51" value="d16" style="rounded=0;whiteSpace=wrap;html=1;container=0;fillColor=#dae8fc;strokeColor=#6c8ebf;" parent="1" vertex="1">
          <mxGeometry x="2070" y="400" width="40" height="40" as="geometry" />
        </mxCell>
        <mxCell id="wSp8r432UNHAgWOweUfD-52" value="d26" style="rounded=0;whiteSpace=wrap;html=1;container=0;fillColor=#dae8fc;strokeColor=#6c8ebf;" parent="1" vertex="1">
          <mxGeometry x="2110" y="440" width="40" height="40" as="geometry" />
        </mxCell>
        <mxCell id="wSp8r432UNHAgWOweUfD-53" value="d25" style="rounded=0;whiteSpace=wrap;html=1;container=0;fillColor=#dae8fc;strokeColor=#6c8ebf;" parent="1" vertex="1">
          <mxGeometry x="2070" y="440" width="40" height="40" as="geometry" />
        </mxCell>
        <mxCell id="wSp8r432UNHAgWOweUfD-54" value="d24" style="rounded=0;whiteSpace=wrap;html=1;container=0;fillColor=#dae8fc;strokeColor=#6c8ebf;" parent="1" vertex="1">
          <mxGeometry x="2030" y="440" width="40" height="40" as="geometry" />
        </mxCell>
        <mxCell id="wSp8r432UNHAgWOweUfD-55" value="d23" style="rounded=0;whiteSpace=wrap;html=1;container=0;fillColor=#dae8fc;strokeColor=#6c8ebf;" parent="1" vertex="1">
          <mxGeometry x="1990" y="440" width="40" height="40" as="geometry" />
        </mxCell>
        <mxCell id="wSp8r432UNHAgWOweUfD-56" value="d22" style="rounded=0;whiteSpace=wrap;html=1;container=0;fillColor=#dae8fc;strokeColor=#6c8ebf;" parent="1" vertex="1">
          <mxGeometry x="1950" y="440" width="40" height="40" as="geometry" />
        </mxCell>
        <mxCell id="wSp8r432UNHAgWOweUfD-57" value="d21" style="rounded=0;whiteSpace=wrap;html=1;container=0;fillColor=#dae8fc;strokeColor=#6c8ebf;" parent="1" vertex="1">
          <mxGeometry x="1910" y="440" width="40" height="40" as="geometry" />
        </mxCell>
        <mxCell id="wSp8r432UNHAgWOweUfD-58" value="d20" style="rounded=0;whiteSpace=wrap;html=1;container=0;fillColor=#ffe6cc;strokeColor=#d79b00;" parent="1" vertex="1">
          <mxGeometry x="1870" y="440" width="40" height="40" as="geometry" />
        </mxCell>
        <mxCell id="wSp8r432UNHAgWOweUfD-59" value="d29" style="rounded=0;whiteSpace=wrap;html=1;container=0;fillColor=#dae8fc;strokeColor=#6c8ebf;" parent="1" vertex="1">
          <mxGeometry x="1870" y="480" width="40" height="40" as="geometry" />
        </mxCell>
        <mxCell id="wSp8r432UNHAgWOweUfD-60" value="d30" style="rounded=0;whiteSpace=wrap;html=1;container=0;fillColor=#dae8fc;strokeColor=#6c8ebf;" parent="1" vertex="1">
          <mxGeometry x="1910" y="480" width="40" height="40" as="geometry" />
        </mxCell>
        <mxCell id="wSp8r432UNHAgWOweUfD-61" value="d31" style="rounded=0;whiteSpace=wrap;html=1;container=0;fillColor=#dae8fc;strokeColor=#6c8ebf;" parent="1" vertex="1">
          <mxGeometry x="1950" y="480" width="40" height="40" as="geometry" />
        </mxCell>
        <mxCell id="wSp8r432UNHAgWOweUfD-62" value="d33" style="rounded=0;whiteSpace=wrap;html=1;container=0;fillColor=#dae8fc;strokeColor=#6c8ebf;" parent="1" vertex="1">
          <mxGeometry x="2030" y="480" width="40" height="40" as="geometry" />
        </mxCell>
        <mxCell id="wSp8r432UNHAgWOweUfD-63" value="d32" style="rounded=0;whiteSpace=wrap;html=1;container=0;fillColor=#dae8fc;strokeColor=#6c8ebf;" parent="1" vertex="1">
          <mxGeometry x="1990" y="480" width="40" height="40" as="geometry" />
        </mxCell>
        <mxCell id="wSp8r432UNHAgWOweUfD-64" value="d34" style="rounded=0;whiteSpace=wrap;html=1;container=0;fillColor=#dae8fc;strokeColor=#6c8ebf;" parent="1" vertex="1">
          <mxGeometry x="2070" y="480" width="40" height="40" as="geometry" />
        </mxCell>
        <mxCell id="wSp8r432UNHAgWOweUfD-65" value="d35" style="rounded=0;whiteSpace=wrap;html=1;container=0;fillColor=#dae8fc;strokeColor=#6c8ebf;" parent="1" vertex="1">
          <mxGeometry x="2110" y="480" width="40" height="40" as="geometry" />
        </mxCell>
        <mxCell id="wSp8r432UNHAgWOweUfD-66" value="d43" style="rounded=0;whiteSpace=wrap;html=1;container=0;fillColor=#dae8fc;strokeColor=#6c8ebf;" parent="1" vertex="1">
          <mxGeometry x="2070" y="520" width="40" height="40" as="geometry" />
        </mxCell>
        <mxCell id="wSp8r432UNHAgWOweUfD-67" value="d42" style="rounded=0;whiteSpace=wrap;html=1;container=0;fillColor=#dae8fc;strokeColor=#6c8ebf;" parent="1" vertex="1">
          <mxGeometry x="2030" y="520" width="40" height="40" as="geometry" />
        </mxCell>
        <mxCell id="wSp8r432UNHAgWOweUfD-68" value="d41" style="rounded=0;whiteSpace=wrap;html=1;container=0;fillColor=#dae8fc;strokeColor=#6c8ebf;" parent="1" vertex="1">
          <mxGeometry x="1990" y="520" width="40" height="40" as="geometry" />
        </mxCell>
        <mxCell id="wSp8r432UNHAgWOweUfD-69" value="d40" style="rounded=0;whiteSpace=wrap;html=1;container=0;fillColor=#dae8fc;strokeColor=#6c8ebf;" parent="1" vertex="1">
          <mxGeometry x="1950" y="520" width="40" height="40" as="geometry" />
        </mxCell>
        <mxCell id="wSp8r432UNHAgWOweUfD-70" value="d39" style="rounded=0;whiteSpace=wrap;html=1;container=0;fillColor=#dae8fc;strokeColor=#6c8ebf;" parent="1" vertex="1">
          <mxGeometry x="1910" y="520" width="40" height="40" as="geometry" />
        </mxCell>
        <mxCell id="wSp8r432UNHAgWOweUfD-71" value="d37" style="rounded=0;whiteSpace=wrap;html=1;container=0;fillColor=#dae8fc;strokeColor=#6c8ebf;" parent="1" vertex="1">
          <mxGeometry x="1830" y="520" width="40" height="40" as="geometry" />
        </mxCell>
        <mxCell id="wSp8r432UNHAgWOweUfD-72" value="d46" style="rounded=0;whiteSpace=wrap;html=1;container=0;fillColor=#dae8fc;strokeColor=#6c8ebf;" parent="1" vertex="1">
          <mxGeometry x="1830" y="560" width="40" height="40" as="geometry" />
        </mxCell>
        <mxCell id="wSp8r432UNHAgWOweUfD-73" value="d47" style="rounded=0;whiteSpace=wrap;html=1;container=0;fillColor=#dae8fc;strokeColor=#6c8ebf;" parent="1" vertex="1">
          <mxGeometry x="1870" y="560" width="40" height="40" as="geometry" />
        </mxCell>
      </root>
    </mxGraphModel>
  </diagram>
</mxfile>
